<svg id="svg" version="1.1" xmlns="http://www.w3.org/2000/svg" xmlns:xlink="http://www.w3.org/1999/xlink" width="400" height="400" viewBox="0, 0, 400,400"><g id="svgg"><path id="path0" d="M145.297 66.300 L 145.400 88.600 148.274 88.717 C 150.892 88.824,151.160 88.913,151.274 89.717 C 151.381 90.465,151.690 90.619,153.300 90.722 C 155.015 90.832,155.200 90.939,155.200 91.822 C 155.200 92.599,155.406 92.800,156.200 92.800 C 156.914 92.800,157.200 93.016,157.200 93.557 C 157.200 94.030,157.574 94.407,158.200 94.564 C 158.830 94.722,159.200 95.098,159.200 95.580 C 159.200 96.068,159.525 96.391,160.100 96.472 C 160.678 96.554,161.046 96.922,161.128 97.500 C 161.210 98.078,161.532 98.400,162.028 98.400 C 162.585 98.400,162.800 98.679,162.800 99.400 C 162.800 100.194,163.002 100.400,163.777 100.400 C 164.640 100.400,164.768 100.598,164.877 102.100 C 164.972 103.413,165.205 103.890,165.900 104.195 C 166.452 104.437,166.800 104.940,166.800 105.495 C 166.800 106.194,167.028 106.400,167.800 106.400 C 168.718 106.400,168.800 106.547,168.800 108.192 C 168.800 109.771,168.919 110.015,169.800 110.236 C 170.677 110.456,170.800 110.703,170.800 112.243 C 170.800 113.842,170.888 114.000,171.782 114.000 C 172.725 114.000,172.770 114.119,172.882 116.900 C 172.990 119.561,173.074 119.811,173.900 119.928 C 174.717 120.044,174.800 120.273,174.800 122.405 C 174.800 124.282,174.957 124.865,175.581 125.302 C 176.166 125.711,176.432 126.534,176.642 128.578 C 176.865 130.756,177.071 131.346,177.661 131.500 C 178.273 131.660,178.400 132.093,178.400 134.014 C 178.400 136.850,178.660 137.600,179.643 137.600 C 180.325 137.600,180.400 137.930,180.400 140.950 C 180.400 145.270,180.725 146.855,181.661 147.100 C 182.327 147.274,182.400 147.760,182.400 152.039 C 182.400 156.758,182.406 156.786,183.392 157.034 L 184.384 157.283 184.492 165.741 C 184.600 174.172,184.603 174.200,185.500 174.328 L 186.400 174.456 186.400 197.028 C 186.400 218.908,186.377 219.600,185.643 219.600 C 184.486 219.600,184.400 220.252,184.400 229.005 C 184.400 237.141,184.400 237.144,183.500 237.272 C 182.632 237.395,182.596 237.568,182.487 242.141 C 182.386 246.373,182.294 246.903,181.630 247.076 C 180.685 247.323,180.400 248.748,180.400 253.222 C 180.400 256.570,180.356 256.751,179.500 256.872 C 178.681 256.989,178.589 257.245,178.481 259.742 C 178.382 262.005,178.233 262.518,177.629 262.676 C 177.045 262.829,176.842 263.427,176.624 265.633 C 176.412 267.785,176.180 268.490,175.576 268.813 C 174.931 269.158,174.800 269.664,174.800 271.814 C 174.800 274.306,174.764 274.400,173.800 274.400 C 172.829 274.400,172.800 274.480,172.800 277.200 C 172.800 279.920,172.771 280.000,171.800 280.000 C 170.867 280.000,170.800 280.133,170.800 282.000 C 170.800 283.867,170.733 284.000,169.800 284.000 C 168.867 284.000,168.800 284.133,168.800 286.000 C 168.800 287.867,168.733 288.000,167.800 288.000 C 167.000 288.000,166.800 288.200,166.800 289.000 C 166.800 289.714,166.584 290.000,166.043 290.000 C 165.185 290.000,164.800 290.745,164.800 292.405 C 164.800 293.282,164.593 293.574,163.900 293.672 C 163.322 293.754,162.954 294.122,162.872 294.700 C 162.792 295.265,162.467 295.600,162.000 295.600 C 161.533 295.600,161.208 295.935,161.128 296.500 C 161.046 297.078,160.678 297.446,160.100 297.528 C 159.449 297.620,159.200 297.924,159.200 298.628 C 159.200 299.398,158.992 299.600,158.200 299.600 C 157.400 299.600,157.200 299.800,157.200 300.600 C 157.200 301.400,157.000 301.600,156.200 301.600 C 155.400 301.600,155.200 301.800,155.200 302.600 C 155.200 303.533,155.067 303.600,153.200 303.600 C 151.467 303.600,151.200 303.707,151.200 304.400 C 151.200 305.116,150.933 305.200,148.649 305.200 C 144.916 305.200,145.179 303.386,145.297 328.245 L 145.400 350.200 151.800 350.318 C 159.387 350.458,160.800 350.280,160.800 349.182 C 160.800 348.494,161.085 348.400,163.167 348.400 C 166.035 348.400,166.800 348.143,166.800 347.179 C 166.800 346.586,167.167 346.420,168.700 346.322 C 170.321 346.218,170.619 346.068,170.728 345.300 C 170.838 344.521,171.095 344.400,172.628 344.400 C 174.251 344.400,174.400 344.316,174.400 343.400 C 174.400 342.600,174.600 342.400,175.400 342.400 C 176.200 342.400,176.400 342.200,176.400 341.400 C 176.400 340.467,176.533 340.400,178.400 340.400 C 180.267 340.400,180.400 340.333,180.400 339.400 C 180.400 338.600,180.600 338.400,181.400 338.400 C 182.200 338.400,182.400 338.200,182.400 337.400 C 182.400 336.600,182.600 336.400,183.400 336.400 C 184.121 336.400,184.400 336.185,184.400 335.628 C 184.400 335.132,184.722 334.810,185.300 334.728 C 185.870 334.647,186.246 334.279,186.325 333.725 C 186.402 333.179,186.779 332.802,187.325 332.725 C 187.870 332.647,188.247 332.270,188.325 331.725 C 188.402 331.179,188.779 330.802,189.325 330.725 C 189.879 330.646,190.247 330.270,190.328 329.700 C 190.410 329.122,190.732 328.800,191.228 328.800 C 191.785 328.800,192.000 328.521,192.000 327.800 C 192.000 327.000,192.200 326.800,193.000 326.800 C 193.800 326.800,194.000 326.600,194.000 325.800 C 194.000 325.000,194.200 324.800,195.000 324.800 C 195.792 324.800,196.000 324.598,196.000 323.828 C 196.000 323.124,196.249 322.820,196.900 322.728 C 197.644 322.622,197.821 322.312,197.921 320.938 C 198.022 319.557,198.208 319.235,199.021 319.030 C 199.624 318.879,200.000 318.497,200.000 318.036 C 200.000 317.570,200.379 317.192,201.000 317.036 C 201.878 316.815,202.000 316.569,202.000 315.020 C 202.000 313.495,202.122 313.238,202.900 313.128 C 203.478 313.046,203.846 312.678,203.928 312.100 C 204.009 311.528,204.332 311.200,204.814 311.200 C 205.422 311.200,205.625 310.803,205.838 309.200 C 206.049 307.607,206.255 307.200,206.852 307.200 C 207.400 307.200,207.601 306.906,207.605 306.100 C 207.615 304.216,208.049 303.200,208.847 303.200 C 209.473 303.200,209.600 302.896,209.600 301.400 C 209.600 299.747,209.681 299.600,210.600 299.600 C 211.533 299.600,211.600 299.467,211.600 297.600 C 211.600 295.733,211.667 295.600,212.600 295.600 C 213.531 295.600,213.600 295.465,213.600 293.628 C 213.600 291.887,213.706 291.641,214.500 291.528 C 215.254 291.421,215.420 291.114,215.526 289.643 C 215.611 288.451,215.920 287.669,216.487 287.210 C 217.095 286.718,217.373 285.934,217.505 284.343 C 217.650 282.587,217.856 282.078,218.543 281.776 C 219.278 281.454,219.417 281.014,219.518 278.700 C 219.620 276.389,219.742 276.000,220.372 276.000 C 221.252 276.000,221.587 274.945,221.595 272.147 C 221.599 270.462,221.738 270.057,222.366 269.893 C 223.022 269.722,223.174 269.170,223.415 266.080 C 223.655 263.019,223.812 262.438,224.449 262.271 C 225.116 262.097,225.200 261.657,225.200 258.332 C 225.200 254.835,225.259 254.564,226.100 254.195 C 226.946 253.824,227.007 253.530,227.113 249.300 C 227.175 246.825,227.387 244.800,227.585 244.800 C 228.928 244.800,229.200 243.549,229.200 237.371 C 229.200 233.840,229.359 231.200,229.571 231.200 C 231.220 231.200,231.200 231.615,231.200 197.204 C 231.200 163.225,231.199 163.200,229.957 163.200 C 229.247 163.200,229.200 162.817,229.200 157.033 C 229.200 150.309,229.083 149.600,227.970 149.600 C 227.293 149.600,227.215 149.176,227.113 144.900 C 227.006 140.462,226.950 140.178,226.100 139.805 C 225.261 139.437,225.200 139.162,225.200 135.752 C 225.200 132.521,225.113 132.071,224.456 131.899 C 223.827 131.734,223.667 131.139,223.427 128.070 C 223.185 124.974,223.029 124.399,222.371 124.191 C 221.749 123.993,221.600 123.571,221.600 121.999 C 221.600 119.634,221.032 118.000,220.210 118.000 C 219.738 118.000,219.600 117.508,219.600 115.833 C 219.600 113.151,219.328 112.400,218.357 112.400 C 217.728 112.400,217.600 112.100,217.600 110.626 C 217.600 108.440,217.013 106.800,216.231 106.800 C 215.802 106.800,215.609 106.228,215.521 104.700 C 215.416 102.886,215.280 102.583,214.521 102.475 C 213.779 102.369,213.623 102.056,213.521 100.475 C 213.418 98.879,213.266 98.581,212.500 98.472 C 211.721 98.362,211.600 98.105,211.600 96.572 C 211.600 94.949,211.516 94.800,210.600 94.800 C 209.667 94.800,209.600 94.667,209.600 92.800 C 209.600 91.104,209.485 90.800,208.843 90.800 C 207.953 90.800,207.600 90.052,207.600 88.167 C 207.600 87.067,207.444 86.800,206.800 86.800 C 206.239 86.800,205.998 86.532,205.995 85.900 C 205.985 84.300,205.531 83.232,204.757 82.986 C 204.341 82.854,204.000 82.402,204.000 81.981 C 204.000 81.498,203.631 81.123,203.000 80.964 C 202.123 80.744,202.000 80.497,202.000 78.957 C 202.000 77.350,201.915 77.200,201.000 77.200 C 200.200 77.200,200.000 77.000,200.000 76.200 C 200.000 75.406,199.799 75.200,199.022 75.200 C 198.139 75.200,198.032 75.015,197.922 73.300 C 197.818 71.679,197.668 71.381,196.900 71.272 C 196.249 71.180,196.000 70.876,196.000 70.172 C 196.000 69.402,195.792 69.200,195.000 69.200 C 194.200 69.200,194.000 69.000,194.000 68.200 C 194.000 67.400,193.800 67.200,193.000 67.200 C 192.252 67.200,192.000 66.989,192.000 66.363 C 192.000 65.862,191.679 65.441,191.200 65.316 C 190.757 65.200,190.400 64.770,190.400 64.353 C 190.400 63.816,190.113 63.600,189.400 63.600 C 188.600 63.600,188.400 63.400,188.400 62.600 C 188.400 61.800,188.200 61.600,187.400 61.600 C 186.600 61.600,186.400 61.400,186.400 60.600 C 186.400 59.800,186.200 59.600,185.400 59.600 C 184.600 59.600,184.400 59.400,184.400 58.600 C 184.400 57.800,184.200 57.600,183.400 57.600 C 182.600 57.600,182.400 57.400,182.400 56.600 C 182.400 55.808,182.198 55.600,181.428 55.600 C 180.724 55.600,180.420 55.351,180.328 54.700 C 180.219 53.932,179.921 53.782,178.300 53.678 C 176.585 53.568,176.400 53.461,176.400 52.578 C 176.400 51.801,176.194 51.600,175.400 51.600 C 174.687 51.600,174.400 51.384,174.400 50.847 C 174.400 50.079,173.392 49.616,171.700 49.605 C 171.068 49.602,170.800 49.361,170.800 48.800 C 170.800 48.108,170.533 48.000,168.828 48.000 C 167.087 48.000,166.841 47.894,166.728 47.100 C 166.611 46.274,166.361 46.190,163.700 46.082 C 160.919 45.970,160.800 45.925,160.800 44.982 L 160.800 44.000 152.997 44.000 L 145.193 44.000 145.297 66.300 M115.632 241.313 C 115.614 241.705,115.195 242.189,114.700 242.388 C 114.091 242.632,114.010 242.757,114.451 242.775 C 115.274 242.807,116.141 241.790,115.869 241.113 C 115.742 240.796,115.651 240.872,115.632 241.313 M69.676 249.166 C 69.768 249.477,70.284 250.006,70.822 250.341 C 71.580 250.814,71.665 250.821,71.200 250.375 C 70.870 250.059,70.354 249.530,70.054 249.200 C 69.615 248.717,69.541 248.710,69.676 249.166 " stroke="none" fill="#bc0c34" fill-rule="evenodd"></path><path id="path1" d="M80.160 148.790 C 78.598 148.965,76.978 149.291,76.560 149.514 C 76.142 149.738,74.900 150.046,73.800 150.199 C 72.700 150.352,71.170 150.792,70.400 151.177 C 69.630 151.562,68.280 152.111,67.400 152.397 C 66.520 152.683,65.371 153.250,64.846 153.658 C 64.321 154.066,63.724 154.400,63.519 154.400 C 63.314 154.400,62.557 154.850,61.836 155.400 C 61.114 155.950,60.381 156.400,60.205 156.400 C 59.670 156.400,55.533 160.019,53.140 162.581 C 51.898 163.911,50.544 165.360,50.133 165.800 C 49.722 166.240,48.865 167.410,48.230 168.400 C 47.595 169.390,46.783 170.650,46.426 171.200 C 44.800 173.707,41.200 182.202,41.200 183.533 C 41.200 183.927,40.807 185.678,40.327 187.425 C 39.063 192.025,39.063 201.975,40.327 206.575 C 40.807 208.322,41.200 210.214,41.200 210.781 C 41.200 211.348,41.560 212.484,42.000 213.304 C 42.440 214.125,42.800 215.027,42.800 215.309 C 42.800 215.590,43.334 216.896,43.987 218.210 C 44.641 219.525,45.181 220.766,45.187 220.969 C 45.194 221.171,45.487 221.654,45.837 222.041 C 46.187 222.428,46.772 223.279,47.137 223.932 C 48.781 226.875,50.395 228.856,53.965 232.312 C 59.334 237.508,59.437 237.600,59.888 237.600 C 60.110 237.600,60.721 237.930,61.246 238.332 C 62.280 239.127,65.858 241.032,68.921 242.421 C 70.688 243.222,73.983 244.092,79.600 245.239 C 82.497 245.832,90.875 245.479,93.067 244.672 C 93.983 244.335,95.603 243.935,96.667 243.782 C 97.730 243.630,99.161 243.167,99.847 242.753 C 100.533 242.339,101.304 242.000,101.560 242.000 C 102.158 242.000,104.162 241.060,106.200 239.824 C 107.080 239.290,108.435 238.498,109.211 238.064 C 110.718 237.221,115.919 232.589,117.591 230.601 C 118.146 229.941,118.960 229.024,119.400 228.562 C 120.542 227.365,121.763 225.621,122.594 224.000 C 122.989 223.230,123.441 222.510,123.599 222.400 C 124.006 222.117,126.800 216.215,126.800 215.638 C 126.800 215.375,127.100 214.584,127.466 213.880 C 127.832 213.176,128.477 210.980,128.898 209.000 C 129.319 207.020,129.822 204.680,130.015 203.800 C 130.207 202.920,130.365 199.860,130.365 197.000 C 130.365 194.140,130.207 191.080,130.015 190.200 C 129.822 189.320,129.312 186.935,128.881 184.901 C 128.451 182.866,127.914 180.976,127.689 180.701 C 127.463 180.425,127.075 179.439,126.826 178.510 C 126.578 177.580,125.753 175.690,124.994 174.310 C 124.234 172.929,123.263 171.158,122.836 170.373 C 122.408 169.589,121.775 168.711,121.429 168.424 C 121.083 168.137,120.800 167.668,120.800 167.381 C 120.800 166.859,112.962 158.819,111.160 157.493 C 109.372 156.178,105.829 154.000,105.477 154.000 C 105.284 154.000,104.669 153.640,104.109 153.200 C 103.550 152.760,102.801 152.394,102.446 152.387 C 102.091 152.381,100.900 151.932,99.800 151.391 C 98.700 150.850,97.439 150.406,96.999 150.404 C 96.558 150.402,95.014 150.062,93.568 149.648 C 90.439 148.753,84.112 148.349,80.160 148.790 " stroke="none" fill="#7234a3" fill-rule="evenodd"></path><path id="path2" d="M71.333 144.220 C 71.333 144.539,71.513 144.800,71.733 144.800 C 73.203 144.800,71.126 145.414,69.467 145.470 C 66.763 145.561,65.800 145.780,65.800 146.305 C 65.800 147.009,65.385 147.222,63.752 147.359 C 62.633 147.452,62.090 147.727,61.805 148.344 C 61.446 149.123,60.440 149.430,58.900 149.230 C 58.625 149.194,58.400 149.421,58.400 149.733 C 58.400 150.466,57.569 151.149,56.476 151.316 C 56.002 151.388,55.195 151.841,54.681 152.323 C 54.168 152.806,53.535 153.200,53.274 153.200 C 53.013 153.200,52.800 153.483,52.800 153.829 C 52.800 154.700,51.921 155.494,51.090 155.372 C 50.708 155.316,50.498 155.434,50.622 155.635 C 50.746 155.836,50.657 156.000,50.424 156.000 C 50.191 156.000,50.000 156.251,50.000 156.557 C 50.000 157.215,48.911 157.716,48.302 157.339 C 48.068 157.195,47.973 157.239,48.091 157.438 C 48.496 158.119,47.635 159.642,46.915 159.519 C 46.524 159.452,46.198 159.663,46.170 160.000 C 46.057 161.406,45.972 161.564,45.440 161.360 C 45.133 161.242,44.745 161.366,44.579 161.635 C 44.386 161.946,44.443 162.021,44.734 161.841 C 45.029 161.658,45.107 161.777,44.954 162.177 C 44.823 162.517,44.593 162.719,44.443 162.627 C 44.293 162.534,44.132 162.911,44.086 163.465 C 43.974 164.819,43.632 165.298,42.960 165.040 C 42.652 164.922,42.373 165.044,42.339 165.313 C 42.306 165.581,42.236 165.980,42.185 166.200 C 42.134 166.420,42.072 166.833,42.046 167.118 C 42.021 167.402,41.689 167.582,41.309 167.518 C 40.924 167.452,40.598 167.665,40.570 168.000 C 40.544 168.330,40.472 168.735,40.411 168.900 C 40.223 169.407,40.102 169.973,40.050 170.587 C 40.021 170.930,39.756 171.081,39.416 170.951 C 38.997 170.790,38.876 170.957,38.988 171.540 C 39.092 172.078,38.972 172.287,38.634 172.158 C 38.291 172.026,38.096 172.396,38.040 173.281 C 37.994 174.006,37.937 174.826,37.912 175.102 C 37.887 175.378,37.600 175.558,37.275 175.502 C 36.949 175.446,36.606 175.670,36.511 176.000 C 36.358 176.533,36.386 176.533,36.763 176.000 C 36.997 175.670,37.191 175.589,37.194 175.820 C 37.197 176.051,36.986 176.454,36.724 176.716 C 36.462 176.978,36.216 177.779,36.178 178.496 C 36.037 181.154,36.010 181.253,35.500 180.947 C 35.150 180.736,35.162 180.846,35.540 181.312 C 35.997 181.876,35.982 182.075,35.440 182.617 C 34.802 183.255,34.531 182.904,35.100 182.177 C 35.265 181.967,35.130 182.027,34.801 182.310 C 33.367 183.546,33.928 211.429,35.411 212.620 C 35.698 212.851,36.026 214.198,36.139 215.614 C 36.296 217.572,36.543 218.348,37.172 218.858 C 37.628 219.227,38.000 219.750,38.000 220.020 C 38.000 220.291,38.315 220.757,38.700 221.057 C 39.357 221.568,39.353 221.586,38.645 221.337 C 38.100 221.146,37.947 221.228,38.095 221.636 C 38.208 221.946,38.533 222.145,38.818 222.077 C 39.237 221.978,39.236 222.075,38.811 222.587 C 38.369 223.120,38.383 223.181,38.903 222.982 C 39.630 222.703,39.972 223.152,40.086 224.535 C 40.132 225.089,40.293 225.466,40.443 225.373 C 40.593 225.281,40.824 225.485,40.955 225.828 C 41.098 226.200,41.396 226.329,41.697 226.149 C 42.044 225.940,42.030 226.056,41.651 226.523 C 41.349 226.895,41.274 227.200,41.483 227.200 C 41.693 227.200,42.106 227.650,42.400 228.200 C 42.694 228.750,43.175 229.200,43.468 229.200 C 43.970 229.200,44.185 229.732,44.023 230.574 C 43.877 231.330,44.428 232.800,44.857 232.800 C 45.135 232.800,45.096 232.555,44.749 232.136 C 44.246 231.528,44.276 231.519,45.100 232.032 C 45.886 232.521,46.180 233.140,46.062 234.057 C 46.044 234.198,46.607 234.599,47.314 234.948 C 48.021 235.297,48.467 235.586,48.304 235.591 C 48.141 235.596,48.308 235.951,48.675 236.380 C 49.042 236.808,49.491 237.068,49.671 236.956 C 49.968 236.773,50.183 237.695,50.037 238.530 C 50.006 238.711,50.138 238.762,50.331 238.643 C 50.806 238.349,52.198 239.405,52.209 240.068 C 52.214 240.360,52.521 240.549,52.891 240.487 C 53.261 240.424,53.860 240.824,54.221 241.376 C 54.617 241.981,55.418 242.480,56.239 242.634 C 56.988 242.774,57.623 243.049,57.650 243.245 C 57.678 243.440,57.745 243.780,57.800 244.000 C 57.855 244.220,57.925 244.535,57.956 244.700 C 57.987 244.865,58.187 244.730,58.400 244.400 C 58.658 244.000,58.790 243.967,58.794 244.300 C 58.798 244.604,59.350 244.800,60.200 244.800 C 60.970 244.800,61.600 244.993,61.600 245.229 C 61.600 246.074,62.768 246.800,64.128 246.800 C 65.240 246.800,65.559 246.982,65.744 247.719 C 65.913 248.391,66.274 248.647,67.087 248.670 C 67.699 248.688,68.976 248.724,69.924 248.751 C 70.960 248.781,71.549 248.959,71.400 249.200 C 71.264 249.420,71.388 249.603,71.676 249.606 C 72.100 249.611,72.098 249.677,71.666 249.950 C 70.598 250.628,72.349 250.727,85.038 250.708 C 97.646 250.689,98.958 250.555,97.990 249.388 C 97.735 249.081,98.196 248.912,99.513 248.830 C 100.551 248.765,102.030 248.672,102.800 248.623 C 103.832 248.557,104.171 248.366,104.089 247.897 C 103.944 247.058,104.326 246.860,106.329 246.742 C 107.923 246.648,108.177 246.433,108.030 245.300 C 107.988 244.981,108.485 244.800,109.406 244.800 C 110.352 244.800,110.754 244.649,110.575 244.360 C 110.378 244.041,110.527 244.040,111.116 244.355 C 111.840 244.742,111.916 244.681,111.819 243.795 C 111.725 242.938,111.871 242.800,112.873 242.800 C 114.345 242.800,115.982 241.215,116.054 239.718 C 116.098 238.828,116.143 238.776,116.278 239.466 C 116.371 239.943,116.716 240.436,117.044 240.562 C 117.382 240.691,117.535 240.619,117.397 240.395 C 117.263 240.178,117.354 240.000,117.600 240.000 C 117.846 240.000,117.924 239.801,117.774 239.557 C 117.583 239.249,117.396 239.279,117.156 239.657 C 116.926 240.020,116.810 240.042,116.806 239.724 C 116.799 239.133,117.447 238.714,118.554 238.594 C 119.953 238.442,119.983 238.422,119.745 237.800 C 119.618 237.470,119.724 237.200,119.981 237.200 C 120.237 237.200,120.319 236.992,120.162 236.738 C 119.994 236.466,120.051 236.384,120.302 236.539 C 120.812 236.855,122.000 236.456,122.000 235.970 C 122.000 235.780,121.691 235.744,121.313 235.889 C 120.704 236.122,120.693 236.080,121.213 235.518 C 121.536 235.169,121.923 234.958,122.072 235.049 C 122.222 235.139,122.460 235.027,122.600 234.800 C 122.740 234.573,123.027 234.493,123.238 234.623 C 123.448 234.753,123.594 234.711,123.563 234.530 C 123.314 233.100,123.653 232.357,124.500 232.475 C 125.086 232.556,125.404 232.391,125.411 232.000 C 125.416 231.670,125.552 231.191,125.712 230.936 C 125.872 230.681,125.893 230.186,125.759 229.836 C 125.576 229.359,125.764 229.200,126.513 229.200 C 127.062 229.200,127.503 228.975,127.493 228.700 C 127.428 226.949,127.644 225.980,128.045 226.228 C 128.289 226.379,128.647 226.254,128.839 225.951 C 129.072 225.583,129.190 225.559,129.194 225.880 C 129.197 226.144,128.885 226.544,128.500 226.768 C 128.115 226.992,128.003 227.181,128.251 227.188 C 129.183 227.213,129.741 226.053,129.149 225.323 C 128.835 224.936,128.803 224.768,129.073 224.930 C 129.382 225.116,129.589 224.832,129.673 224.107 C 129.755 223.390,130.037 222.998,130.472 222.995 C 130.841 222.992,131.291 222.828,131.472 222.631 C 131.657 222.428,131.595 222.389,131.328 222.542 C 131.068 222.691,130.741 222.629,130.602 222.404 C 130.463 222.179,130.631 221.886,130.975 221.754 C 131.338 221.615,131.600 221.040,131.600 220.384 C 131.600 219.605,131.849 219.175,132.400 219.000 C 132.840 218.860,133.200 218.542,133.200 218.293 C 133.200 217.971,133.062 217.978,132.720 218.320 C 132.067 218.973,131.600 218.923,131.600 218.200 C 131.600 217.870,131.735 217.621,131.900 217.647 C 133.155 217.845,133.403 217.516,133.474 215.560 C 133.518 214.364,133.808 213.233,134.174 212.828 C 134.519 212.448,134.800 211.926,134.800 211.669 C 134.800 211.411,135.002 211.200,135.249 211.200 C 135.542 211.200,135.507 210.964,135.149 210.523 C 134.770 210.056,134.756 209.940,135.103 210.149 C 135.503 210.389,135.596 207.633,135.556 196.625 C 135.528 188.940,135.349 182.800,135.153 182.800 C 134.959 182.800,134.800 182.539,134.800 182.220 C 134.800 181.901,134.541 181.495,134.225 181.318 C 133.849 181.107,133.617 180.205,133.557 178.716 C 133.500 177.318,133.310 176.532,133.064 176.684 C 132.826 176.831,132.768 176.661,132.921 176.262 C 133.086 175.832,132.896 175.417,132.389 175.100 C 131.955 174.829,131.600 174.201,131.600 173.704 C 131.600 173.114,131.357 172.796,130.900 172.788 C 130.233 172.776,130.233 172.756,130.900 172.368 C 131.285 172.144,131.600 171.779,131.600 171.557 C 131.600 171.334,131.420 171.264,131.200 171.400 C 130.980 171.536,130.800 171.462,130.800 171.236 C 130.800 171.010,130.530 170.929,130.200 171.055 C 129.598 171.286,129.393 170.461,129.593 168.619 C 129.667 167.935,129.595 167.906,129.016 168.386 C 128.453 168.854,128.373 168.851,128.477 168.368 C 128.545 168.055,128.362 167.849,128.070 167.910 C 127.779 167.970,127.636 167.865,127.753 167.676 C 128.268 166.843,127.340 164.999,126.470 165.125 C 125.791 165.223,125.611 165.051,125.632 164.325 C 125.678 162.748,125.398 162.075,124.257 161.018 C 123.610 160.418,123.271 159.791,123.436 159.498 C 123.654 159.112,123.602 159.107,123.204 159.474 C 122.677 159.962,121.516 159.254,121.640 158.521 C 121.816 157.483,121.587 157.002,121.200 157.600 C 120.987 157.930,120.809 157.996,120.806 157.747 C 120.803 157.497,120.395 157.182,119.900 157.047 C 119.149 156.841,119.099 156.735,119.600 156.406 C 120.037 156.119,120.058 156.011,119.676 156.006 C 119.365 156.002,119.274 155.798,119.453 155.500 C 119.657 155.160,119.537 155.176,119.077 155.549 C 118.636 155.907,118.400 155.942,118.400 155.649 C 118.400 155.402,118.062 155.200,117.649 155.200 C 116.436 155.200,115.805 154.161,116.678 153.602 C 117.322 153.190,117.325 153.163,116.705 153.355 C 116.242 153.499,115.842 153.249,115.505 152.607 C 115.227 152.077,114.866 151.629,114.702 151.612 C 113.082 151.444,112.098 150.990,111.780 150.266 C 111.571 149.790,111.130 149.382,110.800 149.361 C 110.470 149.339,109.694 149.294,109.076 149.261 C 108.409 149.225,108.058 149.031,108.211 148.782 C 108.702 147.988,107.596 147.283,105.986 147.366 C 105.114 147.410,104.400 147.291,104.400 147.100 C 104.400 146.909,104.175 146.888,103.900 147.053 C 103.527 147.277,103.533 147.190,103.921 146.710 C 104.578 145.899,103.648 145.546,100.418 145.381 C 99.198 145.318,98.029 145.252,97.820 145.234 C 97.611 145.215,97.656 144.984,97.920 144.720 C 98.184 144.456,98.400 144.106,98.400 143.942 C 98.400 143.778,92.310 143.643,84.867 143.642 C 73.307 143.640,71.333 143.724,71.333 144.220 M96.323 148.530 C 96.766 148.931,98.132 149.395,99.358 149.562 C 100.584 149.728,101.905 150.151,102.294 150.501 C 102.682 150.851,103.540 151.265,104.200 151.421 C 104.860 151.577,105.760 152.028,106.200 152.423 C 106.640 152.818,107.500 153.265,108.111 153.416 C 108.721 153.568,109.396 154.019,109.610 154.419 C 109.824 154.819,110.365 155.262,110.812 155.404 C 111.260 155.546,112.039 156.053,112.545 156.531 C 113.051 157.009,114.058 157.850,114.784 158.400 C 117.430 160.405,121.288 164.752,121.759 166.257 C 121.906 166.728,122.381 167.206,122.813 167.319 C 123.246 167.433,123.600 167.831,123.600 168.205 C 123.600 168.579,124.050 169.419,124.600 170.073 C 125.150 170.727,125.600 171.599,125.600 172.013 C 125.600 172.426,126.050 173.214,126.600 173.764 C 127.178 174.342,127.600 175.224,127.600 175.856 C 127.600 176.457,127.971 177.343,128.424 177.825 C 128.971 178.408,129.328 179.478,129.486 181.014 C 129.631 182.415,130.000 183.600,130.423 184.023 C 132.054 185.654,132.105 207.780,130.483 209.974 C 129.960 210.681,129.600 211.750,129.600 212.597 C 129.600 214.179,128.648 216.800,128.073 216.800 C 127.871 216.800,127.604 217.555,127.480 218.477 C 127.351 219.445,126.926 220.418,126.478 220.777 C 126.050 221.120,125.583 221.901,125.439 222.513 C 125.296 223.126,124.823 223.931,124.389 224.302 C 123.955 224.674,123.600 225.265,123.600 225.617 C 123.600 225.968,123.195 226.632,122.700 227.092 C 122.205 227.551,121.171 228.799,120.403 229.864 C 118.744 232.161,114.632 236.210,113.148 237.006 C 112.570 237.317,111.991 237.847,111.861 238.185 C 111.731 238.523,111.358 238.800,111.031 238.800 C 110.704 238.800,109.986 239.250,109.436 239.800 C 108.886 240.350,108.078 240.800,107.641 240.800 C 107.203 240.800,106.594 241.159,106.287 241.597 C 105.980 242.036,105.115 242.510,104.364 242.651 C 103.614 242.792,102.640 243.228,102.200 243.620 C 101.760 244.011,100.501 244.464,99.403 244.626 C 98.304 244.788,96.894 245.298,96.269 245.760 C 94.510 247.061,75.488 247.059,73.728 245.758 C 73.079 245.278,71.619 244.795,70.335 244.634 C 68.937 244.460,67.828 244.073,67.414 243.616 C 67.048 243.211,66.132 242.764,65.379 242.622 C 64.626 242.481,63.832 242.034,63.616 241.629 C 63.399 241.224,62.589 240.774,61.816 240.629 C 61.028 240.482,60.225 240.021,59.991 239.583 C 59.760 239.152,59.330 238.800,59.035 238.800 C 58.740 238.800,58.254 238.506,57.955 238.146 C 57.656 237.786,56.779 237.088,56.006 236.595 C 53.414 234.942,48.000 229.043,48.000 227.872 C 48.000 227.532,47.649 227.143,47.220 227.006 C 46.792 226.870,46.324 226.390,46.180 225.938 C 46.037 225.487,45.488 224.481,44.960 223.703 C 44.432 222.925,44.000 221.997,44.000 221.640 C 44.000 221.284,43.666 220.784,43.258 220.529 C 42.849 220.274,42.410 219.418,42.282 218.626 C 42.153 217.835,41.677 216.716,41.224 216.140 C 40.709 215.485,40.400 214.502,40.400 213.517 C 40.400 212.552,40.006 211.271,39.383 210.207 L 38.366 208.471 38.483 196.677 C 38.590 185.854,38.661 184.815,39.341 184.065 C 39.788 183.572,40.194 182.290,40.366 180.838 C 40.528 179.464,40.947 178.100,41.342 177.664 C 41.723 177.243,42.141 176.240,42.272 175.434 C 42.403 174.628,42.818 173.751,43.194 173.484 C 43.570 173.218,44.099 172.326,44.369 171.503 C 44.639 170.680,45.075 169.870,45.338 169.703 C 45.602 169.536,46.034 168.905,46.300 168.300 C 46.565 167.695,46.964 167.200,47.186 167.200 C 47.408 167.200,47.835 166.611,48.136 165.890 C 48.785 164.338,55.717 157.200,56.576 157.200 C 56.904 157.200,57.358 156.852,57.586 156.427 C 57.813 156.002,58.404 155.526,58.900 155.370 C 59.395 155.213,60.025 154.765,60.300 154.374 C 60.576 153.983,61.342 153.544,62.004 153.399 C 62.665 153.254,63.379 152.814,63.589 152.421 C 63.804 152.018,64.631 151.601,65.487 151.464 C 66.321 151.331,67.316 150.857,67.698 150.411 C 68.146 149.888,68.881 149.600,69.770 149.600 C 71.154 149.600,72.147 149.266,74.000 148.179 C 75.646 147.212,95.209 147.520,96.323 148.530 M274.962 155.107 C 275.874 156.176,276.000 156.204,276.000 155.333 C 276.000 154.967,275.882 154.785,275.737 154.930 C 275.592 155.075,275.187 154.973,274.837 154.703 C 274.447 154.403,274.495 154.560,274.962 155.107 M35.600 211.367 C 35.600 211.678,35.825 212.024,36.100 212.135 C 36.477 212.287,36.480 212.345,36.114 212.368 C 35.847 212.386,35.435 212.040,35.200 211.600 C 34.910 211.058,34.905 210.800,35.186 210.800 C 35.414 210.800,35.600 211.055,35.600 211.367 " stroke="none" fill="#2d548c" fill-rule="evenodd"></path><path id="path3" d="M74.000 148.179 C 72.147 149.266,71.154 149.600,69.770 149.600 C 68.881 149.600,68.146 149.888,67.698 150.411 C 67.316 150.857,66.321 151.331,65.487 151.464 C 64.631 151.601,63.804 152.018,63.589 152.421 C 63.379 152.814,62.665 153.254,62.004 153.399 C 61.342 153.544,60.576 153.983,60.300 154.374 C 60.025 154.765,59.395 155.213,58.900 155.370 C 58.404 155.526,57.813 156.002,57.586 156.427 C 57.358 156.852,56.904 157.200,56.576 157.200 C 55.717 157.200,48.785 164.338,48.136 165.890 C 47.835 166.611,47.408 167.200,47.186 167.200 C 46.964 167.200,46.565 167.695,46.300 168.300 C 46.034 168.905,45.602 169.536,45.338 169.703 C 45.075 169.870,44.639 170.680,44.369 171.503 C 44.099 172.326,43.570 173.218,43.194 173.484 C 42.818 173.751,42.403 174.628,42.272 175.434 C 42.141 176.240,41.723 177.243,41.342 177.664 C 40.947 178.100,40.528 179.464,40.366 180.838 C 40.194 182.290,39.788 183.572,39.341 184.065 C 38.661 184.815,38.590 185.854,38.483 196.677 L 38.366 208.471 39.383 210.207 C 40.006 211.271,40.400 212.552,40.400 213.517 C 40.400 214.502,40.709 215.485,41.224 216.140 C 41.677 216.716,42.153 217.835,42.282 218.626 C 42.410 219.418,42.849 220.274,43.258 220.529 C 43.666 220.784,44.000 221.284,44.000 221.640 C 44.000 221.997,44.432 222.925,44.960 223.703 C 45.488 224.481,46.037 225.487,46.180 225.938 C 46.324 226.390,46.792 226.870,47.220 227.006 C 47.649 227.143,48.000 227.532,48.000 227.872 C 48.000 229.043,53.414 234.942,56.006 236.595 C 56.779 237.088,57.656 237.786,57.955 238.146 C 58.254 238.506,58.740 238.800,59.035 238.800 C 59.330 238.800,59.760 239.152,59.991 239.583 C 60.225 240.021,61.028 240.482,61.816 240.629 C 62.589 240.774,63.399 241.224,63.616 241.629 C 63.832 242.034,64.626 242.481,65.379 242.622 C 66.132 242.764,67.048 243.211,67.414 243.616 C 67.828 244.073,68.937 244.460,70.335 244.634 C 71.619 244.795,73.079 245.278,73.728 245.758 C 75.488 247.059,94.510 247.061,96.269 245.760 C 96.894 245.298,98.304 244.788,99.403 244.626 C 100.501 244.464,101.760 244.011,102.200 243.620 C 102.640 243.228,103.614 242.792,104.364 242.651 C 105.115 242.510,105.980 242.036,106.287 241.597 C 106.594 241.159,107.203 240.800,107.641 240.800 C 108.078 240.800,108.886 240.350,109.436 239.800 C 109.986 239.250,110.704 238.800,111.031 238.800 C 111.358 238.800,111.731 238.523,111.861 238.185 C 111.991 237.847,112.570 237.317,113.148 237.006 C 114.632 236.210,118.744 232.161,120.403 229.864 C 121.171 228.799,122.205 227.551,122.700 227.092 C 123.195 226.632,123.600 225.968,123.600 225.617 C 123.600 225.265,123.955 224.674,124.389 224.302 C 124.823 223.931,125.296 223.126,125.439 222.513 C 125.583 221.901,126.050 221.120,126.478 220.777 C 126.926 220.418,127.351 219.445,127.480 218.477 C 127.604 217.555,127.871 216.800,128.073 216.800 C 128.648 216.800,129.600 214.179,129.600 212.597 C 129.600 211.750,129.960 210.681,130.483 209.974 C 132.105 207.780,132.054 185.654,130.423 184.023 C 130.000 183.600,129.631 182.415,129.486 181.014 C 129.328 179.478,128.971 178.408,128.424 177.825 C 127.971 177.343,127.600 176.457,127.600 175.856 C 127.600 175.224,127.178 174.342,126.600 173.764 C 126.050 173.214,125.600 172.426,125.600 172.013 C 125.600 171.599,125.150 170.727,124.600 170.073 C 124.050 169.419,123.600 168.579,123.600 168.205 C 123.600 167.831,123.246 167.433,122.813 167.319 C 122.381 167.206,121.906 166.728,121.759 166.257 C 121.288 164.752,117.430 160.405,114.784 158.400 C 114.058 157.850,113.051 157.009,112.545 156.531 C 112.039 156.053,111.260 155.546,110.812 155.404 C 110.365 155.262,109.824 154.819,109.610 154.419 C 109.396 154.019,108.721 153.568,108.111 153.416 C 107.500 153.265,106.640 152.818,106.200 152.423 C 105.760 152.028,104.860 151.577,104.200 151.421 C 103.540 151.265,102.682 150.851,102.294 150.501 C 101.905 150.151,100.584 149.728,99.358 149.562 C 98.132 149.395,96.766 148.931,96.323 148.530 C 95.209 147.520,75.646 147.212,74.000 148.179 M93.568 149.648 C 95.014 150.062,96.558 150.402,96.999 150.404 C 97.439 150.406,98.700 150.850,99.800 151.391 C 100.900 151.932,102.091 152.381,102.446 152.387 C 102.801 152.394,103.550 152.760,104.109 153.200 C 104.669 153.640,105.284 154.000,105.477 154.000 C 105.829 154.000,109.372 156.178,111.160 157.493 C 112.962 158.819,120.800 166.859,120.800 167.381 C 120.800 167.668,121.083 168.137,121.429 168.424 C 121.775 168.711,122.408 169.589,122.836 170.373 C 123.263 171.158,124.234 172.929,124.994 174.310 C 125.753 175.690,126.578 177.580,126.826 178.510 C 127.075 179.439,127.463 180.425,127.689 180.701 C 127.914 180.976,128.451 182.866,128.881 184.901 C 129.312 186.935,129.822 189.320,130.015 190.200 C 130.207 191.080,130.365 194.140,130.365 197.000 C 130.365 199.860,130.207 202.920,130.015 203.800 C 129.822 204.680,129.319 207.020,128.898 209.000 C 128.477 210.980,127.832 213.176,127.466 213.880 C 127.100 214.584,126.800 215.375,126.800 215.638 C 126.800 216.215,124.006 222.117,123.599 222.400 C 123.441 222.510,122.989 223.230,122.594 224.000 C 121.763 225.621,120.542 227.365,119.400 228.562 C 118.960 229.024,118.146 229.941,117.591 230.601 C 115.919 232.589,110.718 237.221,109.211 238.064 C 108.435 238.498,107.080 239.290,106.200 239.824 C 104.162 241.060,102.158 242.000,101.560 242.000 C 101.304 242.000,100.533 242.339,99.847 242.753 C 99.161 243.167,97.730 243.630,96.667 243.782 C 95.603 243.935,93.983 244.335,93.067 244.672 C 90.875 245.479,82.497 245.832,79.600 245.239 C 73.983 244.092,70.688 243.222,68.921 242.421 C 65.858 241.032,62.280 239.127,61.246 238.332 C 60.721 237.930,60.110 237.600,59.888 237.600 C 59.437 237.600,59.334 237.508,53.965 232.312 C 50.395 228.856,48.781 226.875,47.137 223.932 C 46.772 223.279,46.187 222.428,45.837 222.041 C 45.487 221.654,45.194 221.171,45.187 220.969 C 45.181 220.766,44.641 219.525,43.987 218.210 C 43.334 216.896,42.800 215.590,42.800 215.309 C 42.800 215.027,42.440 214.125,42.000 213.304 C 41.560 212.484,41.200 211.348,41.200 210.781 C 41.200 210.214,40.807 208.322,40.327 206.575 C 39.063 201.975,39.063 192.025,40.327 187.425 C 40.807 185.678,41.200 183.927,41.200 183.533 C 41.200 182.202,44.800 173.707,46.426 171.200 C 46.783 170.650,47.595 169.390,48.230 168.400 C 48.865 167.410,49.722 166.240,50.133 165.800 C 50.544 165.360,51.898 163.911,53.140 162.581 C 55.533 160.019,59.670 156.400,60.205 156.400 C 60.381 156.400,61.114 155.950,61.836 155.400 C 62.557 154.850,63.314 154.400,63.519 154.400 C 63.724 154.400,64.321 154.066,64.846 153.658 C 65.371 153.250,66.520 152.683,67.400 152.397 C 68.280 152.111,69.630 151.562,70.400 151.177 C 71.170 150.792,72.700 150.352,73.800 150.199 C 74.900 150.046,76.142 149.738,76.560 149.514 C 78.868 148.279,89.062 148.359,93.568 149.648 M116.154 153.749 C 116.275 154.544,116.832 155.200,117.386 155.200 C 118.178 155.200,117.674 153.713,116.806 153.486 C 116.408 153.382,116.116 153.499,116.154 153.749 M40.911 167.700 C 40.230 168.581,39.917 169.430,40.570 168.624 C 40.917 168.197,41.425 167.704,41.700 167.530 C 42.027 167.322,42.044 167.210,41.749 167.206 C 41.501 167.203,41.124 167.425,40.911 167.700 M127.794 167.610 C 127.655 167.835,127.779 167.970,128.070 167.910 C 128.362 167.849,128.542 168.070,128.471 168.400 C 128.373 168.858,128.455 168.890,128.817 168.535 C 129.301 168.059,129.034 167.200,128.400 167.200 C 128.206 167.200,127.933 167.384,127.794 167.610 M132.000 175.654 C 132.330 175.954,132.859 176.470,133.175 176.800 C 133.621 177.265,133.614 177.180,133.141 176.422 C 132.806 175.884,132.277 175.368,131.966 175.276 C 131.510 175.141,131.517 175.215,132.000 175.654 M133.770 182.276 C 133.889 183.084,134.620 183.415,134.984 182.826 C 135.144 182.567,134.982 182.509,134.555 182.673 C 134.109 182.844,133.964 182.782,134.141 182.496 C 134.291 182.253,134.246 181.952,134.042 181.826 C 133.837 181.699,133.715 181.902,133.770 182.276 M34.114 187.400 C 34.117 188.500,34.195 188.903,34.287 188.295 C 34.379 187.686,34.377 186.786,34.282 186.295 C 34.187 185.803,34.111 186.300,34.114 187.400 M34.114 206.600 C 34.117 207.700,34.195 208.103,34.287 207.495 C 34.379 206.886,34.377 205.986,34.282 205.495 C 34.187 205.003,34.111 205.500,34.114 206.600 M34.562 211.262 C 34.395 211.531,34.451 211.616,34.696 211.464 C 34.927 211.321,35.219 211.474,35.346 211.802 C 35.472 212.131,35.806 212.386,36.087 212.368 C 36.489 212.344,36.492 212.293,36.100 212.135 C 35.825 212.024,35.600 211.678,35.600 211.367 C 35.600 210.684,34.959 210.619,34.562 211.262 M131.600 218.285 C 131.600 218.970,132.187 218.939,132.781 218.223 C 133.174 217.749,133.111 217.656,132.430 217.708 C 131.974 217.742,131.600 218.002,131.600 218.285 M130.600 222.000 C 130.464 222.220,130.498 222.403,130.676 222.406 C 130.854 222.409,130.730 222.587,130.400 222.800 C 130.023 223.044,129.981 223.190,130.286 223.194 C 130.553 223.197,130.965 222.840,131.200 222.400 C 131.636 221.585,131.084 221.217,130.600 222.000 M40.268 225.506 C 40.559 226.661,41.141 227.022,41.735 226.417 C 42.088 226.056,42.087 225.974,41.728 226.071 C 41.469 226.142,40.983 225.840,40.648 225.400 C 40.051 224.615,40.044 224.617,40.268 225.506 M128.837 225.070 C 128.998 225.992,128.744 226.464,128.200 226.255 C 127.838 226.117,127.600 226.253,127.600 226.600 C 127.600 227.357,128.701 226.932,129.212 225.977 C 129.470 225.495,129.463 225.163,129.191 224.995 C 128.965 224.855,128.806 224.889,128.837 225.070 M117.415 238.939 C 117.010 239.236,116.806 239.686,116.962 239.939 C 117.119 240.193,117.069 240.400,116.851 240.400 C 116.634 240.400,116.378 239.995,116.282 239.500 C 116.137 238.748,116.100 238.786,116.054 239.729 C 116.012 240.608,116.156 240.827,116.700 240.715 C 117.122 240.628,117.350 240.282,117.273 239.845 C 117.204 239.446,117.320 239.227,117.531 239.358 C 117.743 239.488,118.019 239.326,118.146 238.998 C 118.427 238.264,118.348 238.257,117.415 238.939 M52.228 239.555 C 51.959 239.990,53.119 241.015,53.476 240.657 C 53.618 240.516,53.501 240.400,53.218 240.400 C 52.805 240.400,52.801 240.281,53.200 239.800 C 53.607 239.310,53.583 239.200,53.073 239.200 C 52.729 239.200,52.349 239.360,52.228 239.555 " stroke="none" fill="#3e4c94" fill-rule="evenodd"></path><path id="path4" d="M229.200 23.869 C 229.200 46.029,229.250 47.794,229.900 48.537 C 230.313 49.010,230.370 49.202,230.038 49.007 C 229.654 48.781,229.569 48.826,229.768 49.149 C 229.929 49.409,230.272 49.595,230.530 49.563 C 233.677 49.175,237.153 49.658,237.272 50.500 C 237.364 51.149,237.712 51.436,238.518 51.528 C 239.417 51.632,239.588 51.807,239.391 52.428 C 239.237 52.913,239.342 53.223,239.673 53.261 C 239.963 53.294,240.380 53.364,240.600 53.415 C 240.820 53.466,241.385 53.528,241.857 53.554 C 242.417 53.584,242.800 53.946,242.964 54.600 C 243.126 55.246,243.496 55.600,244.008 55.600 C 244.586 55.600,244.800 55.870,244.800 56.600 C 244.800 57.400,245.000 57.600,245.800 57.600 C 246.660 57.600,246.801 57.782,246.806 58.900 C 246.812 60.193,247.257 61.299,247.745 61.234 C 248.598 61.120,248.800 61.305,248.800 62.200 C 248.800 63.000,249.000 63.200,249.800 63.200 C 250.614 63.200,250.808 63.405,250.843 64.300 C 250.940 66.814,251.005 67.000,251.784 67.001 C 252.338 67.002,252.642 67.364,252.820 68.236 C 253.128 69.740,253.510 70.400,254.073 70.400 C 254.324 70.400,254.273 70.127,253.949 69.735 C 253.478 69.165,253.485 69.098,254.000 69.269 C 254.618 69.475,254.675 69.676,254.754 71.918 C 254.782 72.719,254.996 73.210,255.300 73.170 C 256.381 73.030,256.601 73.248,256.638 74.500 C 256.726 77.478,257.026 78.601,257.720 78.544 C 258.192 78.506,258.414 78.811,258.446 79.544 C 258.472 80.125,258.534 80.780,258.585 81.000 C 258.636 81.220,258.706 81.715,258.739 82.100 C 258.775 82.513,259.128 82.800,259.600 82.800 C 260.302 82.800,260.400 83.067,260.400 84.976 C 260.400 86.173,260.583 87.266,260.807 87.404 C 261.030 87.542,261.091 87.868,260.942 88.128 C 260.794 88.387,260.812 88.474,260.983 88.319 C 261.688 87.684,262.400 89.219,262.400 91.371 C 262.400 92.673,262.576 93.600,262.824 93.600 C 263.057 93.600,263.136 93.780,263.000 94.000 C 262.864 94.220,263.123 94.400,263.576 94.400 C 264.329 94.400,264.400 94.640,264.400 97.192 C 264.400 99.837,264.453 99.998,265.400 100.236 C 266.319 100.466,266.849 103.954,266.466 107.243 C 266.451 107.376,266.880 107.722,267.419 108.010 C 268.368 108.518,268.798 111.675,268.416 115.330 C 268.358 115.881,268.568 116.029,269.270 115.930 C 270.196 115.801,270.201 115.824,270.313 120.783 C 270.421 125.537,270.972 127.635,271.953 127.029 C 272.089 126.945,272.211 127.534,272.224 128.338 C 272.393 138.440,272.515 139.534,273.395 138.804 C 273.822 138.450,273.935 139.392,274.007 143.885 C 274.168 153.990,274.330 155.462,275.368 156.224 C 275.852 156.580,275.980 159.637,276.152 175.024 C 276.266 185.131,276.370 193.805,276.384 194.299 C 276.398 194.794,276.767 195.422,277.205 195.696 C 278.278 196.366,278.275 198.235,277.201 198.516 C 276.699 198.647,276.395 199.072,276.382 199.662 C 276.370 200.178,276.270 208.877,276.159 218.992 C 275.998 233.666,275.847 237.508,275.416 237.992 C 274.491 239.031,274.070 241.620,274.051 246.400 C 274.016 255.204,274.065 254.690,273.247 254.904 C 272.482 255.104,272.399 255.983,272.226 265.667 C 272.212 266.473,272.035 267.103,271.833 267.067 C 270.978 266.911,270.489 269.086,270.426 273.323 C 270.364 277.482,270.041 278.720,269.161 278.176 C 268.641 277.854,268.400 279.263,268.400 282.633 C 268.400 284.578,268.231 286.021,268.000 286.050 C 267.780 286.078,267.375 286.123,267.100 286.150 C 266.760 286.184,266.565 287.160,266.489 289.200 C 266.325 293.659,266.292 293.800,265.401 293.800 C 264.512 293.800,264.520 293.771,264.450 297.387 C 264.411 299.427,264.281 299.929,263.840 299.760 C 262.996 299.436,262.621 300.332,262.400 303.200 C 262.231 305.395,262.091 305.782,261.500 305.682 C 261.035 305.604,260.783 305.839,260.750 306.382 C 260.723 306.832,260.655 307.380,260.600 307.600 C 260.545 307.820,260.478 308.720,260.450 309.600 C 260.410 310.883,260.251 311.200,259.647 311.200 C 258.863 311.200,258.415 312.212,258.405 314.004 C 258.402 314.556,258.068 315.215,257.662 315.469 C 256.973 315.899,256.815 316.565,256.656 319.717 C 256.616 320.517,256.344 320.899,255.700 321.061 C 255.026 321.230,254.800 321.577,254.800 322.443 C 254.800 323.080,254.595 323.600,254.344 323.600 C 253.698 323.600,252.828 324.853,252.813 325.805 C 252.806 326.248,252.395 326.788,251.900 327.005 C 251.007 327.397,250.935 327.581,250.846 329.700 C 250.809 330.586,250.611 330.800,249.827 330.800 C 249.062 330.800,248.826 331.036,248.727 331.900 C 248.633 332.717,248.409 332.967,247.860 332.873 C 247.416 332.797,247.225 332.917,247.383 333.173 C 247.529 333.408,247.457 333.600,247.224 333.600 C 246.991 333.600,246.800 334.201,246.800 334.936 C 246.800 335.972,246.576 336.374,245.800 336.727 C 245.250 336.978,244.800 337.457,244.800 337.791 C 244.800 338.126,244.620 338.423,244.400 338.450 C 244.180 338.478,243.775 338.526,243.500 338.557 C 243.225 338.588,243.014 339.016,243.032 339.507 C 243.056 340.201,242.841 340.400,242.063 340.400 C 241.513 340.400,240.703 340.715,240.263 341.100 C 239.790 341.513,239.598 341.570,239.793 341.238 C 240.023 340.847,239.975 340.768,239.635 340.979 C 239.366 341.145,239.242 341.533,239.360 341.840 C 239.514 342.242,239.240 342.400,238.387 342.400 C 237.388 342.400,237.200 342.558,237.200 343.400 C 237.200 344.389,237.162 344.400,233.776 344.400 C 231.622 344.400,230.443 344.547,230.597 344.795 C 230.743 345.031,230.562 345.084,230.151 344.926 C 229.626 344.725,229.521 344.818,229.713 345.318 C 229.852 345.679,229.793 346.081,229.583 346.211 C 229.346 346.357,229.200 355.750,229.200 370.834 L 229.200 395.222 239.571 395.187 C 249.857 395.152,250.672 395.051,250.760 393.800 C 250.775 393.580,251.583 393.346,252.556 393.280 C 254.050 393.178,254.361 393.008,254.569 392.180 C 254.785 391.322,255.039 391.200,256.608 391.200 C 258.253 391.200,258.400 391.118,258.400 390.200 C 258.400 389.348,258.592 389.193,259.700 389.154 C 260.415 389.128,261.255 389.083,261.566 389.054 C 262.296 388.984,262.637 388.002,261.933 387.994 C 260.982 387.983,262.513 387.213,263.500 387.206 C 264.179 387.202,264.400 386.967,264.400 386.251 C 264.400 385.456,264.655 385.261,265.973 385.051 C 267.060 384.877,267.625 384.552,267.800 384.000 C 268.022 383.300,268.705 382.996,269.700 383.153 C 269.865 383.179,269.979 383.065,269.953 382.900 C 269.831 382.127,270.027 381.093,270.253 381.319 C 270.639 381.706,272.000 380.845,272.000 380.214 C 272.000 379.907,272.405 379.598,272.900 379.528 C 273.478 379.446,273.846 379.078,273.928 378.500 C 274.009 377.925,274.332 377.600,274.820 377.600 C 275.302 377.600,275.678 377.230,275.836 376.600 C 275.992 375.979,276.370 375.600,276.836 375.600 C 277.301 375.600,277.680 375.221,277.836 374.600 C 277.974 374.050,278.247 373.578,278.443 373.550 C 278.640 373.523,279.025 373.478,279.300 373.450 C 279.575 373.423,279.856 372.915,279.924 372.322 C 280.006 371.616,280.233 371.315,280.584 371.449 C 280.878 371.562,281.255 371.434,281.421 371.165 C 281.632 370.825,281.553 370.777,281.162 371.007 C 280.830 371.202,280.887 371.010,281.300 370.537 C 281.685 370.097,282.000 369.256,282.000 368.669 C 282.000 367.795,282.183 367.600,283.000 367.600 C 283.806 367.600,284.000 367.402,284.000 366.576 C 284.000 365.967,284.169 365.657,284.418 365.811 C 284.979 366.158,286.085 365.199,285.845 364.573 C 285.736 364.288,286.072 363.968,286.627 363.829 C 287.474 363.616,287.600 363.356,287.600 361.820 C 287.600 360.295,287.722 360.038,288.500 359.928 C 289.070 359.847,289.446 359.479,289.525 358.925 C 289.602 358.379,289.979 358.002,290.525 357.925 C 291.261 357.820,291.419 357.504,291.520 355.938 C 291.623 354.343,291.781 354.041,292.620 353.831 C 293.326 353.653,293.600 353.311,293.600 352.605 C 293.600 351.930,293.774 351.692,294.160 351.840 C 294.467 351.958,294.855 351.834,295.021 351.565 C 295.227 351.233,295.144 351.170,294.762 351.368 C 294.453 351.528,294.515 351.401,294.900 351.086 C 295.285 350.770,295.600 350.067,295.600 349.523 C 295.600 348.897,295.942 348.352,296.536 348.034 C 297.228 347.664,297.487 347.160,297.526 346.110 C 297.587 344.488,297.653 344.381,298.663 344.231 C 299.410 344.120,299.471 343.951,299.554 341.795 C 299.586 340.955,299.873 340.470,300.500 340.195 C 300.995 339.978,301.426 339.440,301.457 339.000 C 301.489 338.560,301.534 337.795,301.557 337.300 C 301.587 336.681,301.850 336.400,302.400 336.400 C 303.037 336.400,303.200 336.133,303.200 335.089 C 303.200 333.748,304.216 331.839,304.754 332.171 C 304.918 332.273,305.094 331.511,305.144 330.478 C 305.209 329.144,305.468 328.421,306.038 327.983 C 306.609 327.544,306.909 326.705,307.076 325.083 C 307.302 322.901,307.537 322.586,308.838 322.732 C 308.968 322.746,309.114 321.563,309.161 320.103 C 309.254 317.229,309.428 316.646,310.072 317.045 C 310.716 317.443,311.187 316.374,311.194 314.500 C 311.198 313.246,311.360 312.800,311.810 312.800 C 312.674 312.800,313.161 311.238,313.245 308.198 C 313.284 306.755,313.501 305.461,313.726 305.322 C 313.975 305.168,314.036 305.330,313.881 305.734 C 313.539 306.624,314.230 306.592,314.623 305.700 C 315.090 304.640,315.096 304.589,315.150 301.776 C 315.183 300.067,315.345 299.243,315.618 299.411 C 316.493 299.952,317.097 298.750,317.183 296.294 C 317.231 294.922,317.285 293.600,317.302 293.356 C 317.319 293.111,317.612 292.931,317.952 292.956 C 318.688 293.008,319.333 289.742,318.987 287.711 C 318.812 286.683,318.964 286.252,319.739 285.578 C 320.644 284.791,320.714 284.446,320.772 280.483 C 320.841 275.784,320.792 275.981,321.911 275.897 C 322.659 275.840,322.716 275.529,322.774 271.218 C 322.808 268.678,322.983 266.549,323.161 266.486 C 324.341 266.070,324.983 265.204,324.400 264.814 C 323.997 264.544,323.964 264.410,324.300 264.406 C 324.673 264.402,324.800 263.130,324.800 259.400 C 324.800 256.148,324.948 254.400,325.224 254.400 C 325.457 254.400,325.544 254.232,325.417 254.028 C 325.291 253.823,325.398 253.525,325.655 253.366 C 325.948 253.185,326.016 253.250,325.838 253.538 C 325.681 253.792,325.735 254.000,325.958 254.000 C 326.343 254.000,326.942 251.805,326.781 250.985 C 326.179 247.928,326.894 236.842,327.700 236.728 L 328.600 236.600 328.699 197.464 C 328.791 161.504,328.688 156.723,327.828 157.100 C 326.914 157.501,326.800 156.650,326.800 149.400 C 326.800 145.110,326.640 141.600,326.444 141.600 C 326.249 141.600,326.114 141.285,326.144 140.900 C 326.178 140.477,325.939 140.219,325.541 140.249 C 324.965 140.291,324.873 139.663,324.808 135.249 C 324.743 130.840,324.631 128.576,324.451 128.051 C 324.423 127.969,324.095 128.149,323.723 128.451 C 323.263 128.824,323.143 128.840,323.347 128.500 C 323.512 128.225,323.462 128.000,323.236 128.000 C 322.983 128.000,322.781 126.117,322.712 123.100 C 322.607 118.504,322.550 118.200,321.800 118.200 C 321.055 118.200,320.992 117.895,320.886 113.806 C 320.819 111.242,320.586 109.242,320.327 109.006 C 320.017 108.723,319.967 108.750,320.162 109.095 C 320.342 109.414,320.243 109.515,319.887 109.378 C 319.253 109.135,319.281 109.279,319.013 104.871 C 318.803 101.409,318.641 100.800,317.927 100.800 C 317.666 100.800,317.705 101.069,318.029 101.500 C 318.506 102.134,318.495 102.143,317.903 101.600 C 317.446 101.181,317.212 100.156,317.125 98.200 C 317.016 95.758,316.887 95.350,316.116 95.012 C 315.342 94.673,315.217 94.271,315.116 91.812 C 315.039 89.956,314.837 89.000,314.520 89.000 C 314.256 89.000,313.806 88.739,313.520 88.419 C 313.071 87.918,313.096 87.911,313.700 88.368 C 314.545 89.007,314.627 88.514,313.824 87.627 C 313.505 87.274,313.204 86.013,313.148 84.801 C 313.072 83.133,312.828 82.392,312.124 81.688 C 311.435 80.999,311.200 80.310,311.200 78.982 C 311.200 77.356,311.114 77.200,310.218 77.200 C 309.275 77.200,309.230 77.081,309.118 74.300 C 309.038 72.344,308.837 71.384,308.500 71.350 C 308.225 71.323,307.820 71.278,307.600 71.250 C 307.380 71.223,307.200 70.313,307.200 69.229 C 307.200 67.603,307.025 67.120,306.200 66.471 C 305.387 65.832,305.200 65.334,305.200 63.805 C 305.200 62.292,305.051 61.886,304.437 61.726 C 303.623 61.513,303.214 60.500,303.205 58.676 C 303.202 58.058,303.056 57.642,302.881 57.750 C 301.993 58.298,301.527 57.258,301.245 54.100 C 301.220 53.825,300.840 53.600,300.400 53.600 C 299.639 53.600,299.344 52.639,299.571 50.897 C 299.607 50.620,299.178 50.220,298.618 50.007 C 297.886 49.728,297.587 49.308,297.554 48.510 C 297.465 46.366,297.393 46.199,296.500 46.072 C 295.784 45.970,295.599 45.685,295.594 44.672 C 295.589 43.610,294.825 41.531,294.806 42.529 C 294.792 43.271,293.600 41.591,293.600 40.829 C 293.600 40.211,293.345 40.000,292.600 40.000 C 291.682 40.000,291.600 39.853,291.600 38.208 C 291.600 36.641,291.477 36.384,290.623 36.170 C 290.048 36.026,289.595 35.585,289.523 35.099 C 289.455 34.644,289.069 34.225,288.663 34.166 C 287.665 34.022,287.656 34.006,287.545 32.114 C 287.491 31.199,287.346 30.461,287.223 30.473 C 286.323 30.561,285.590 30.340,285.778 30.036 C 286.169 29.402,285.544 28.400,284.757 28.400 C 284.216 28.400,284.000 28.114,284.000 27.400 C 284.000 26.600,283.800 26.400,283.000 26.400 C 282.160 26.400,282.000 26.212,282.000 25.224 C 282.000 24.577,281.817 23.934,281.593 23.796 C 281.370 23.658,281.309 23.332,281.458 23.072 C 281.606 22.813,281.579 22.735,281.397 22.901 C 280.922 23.331,279.613 22.032,279.863 21.379 C 279.995 21.035,279.690 20.738,279.036 20.573 C 278.406 20.415,278.000 20.034,278.000 19.600 C 278.000 19.173,277.599 18.786,277.000 18.636 C 276.354 18.474,276.000 18.104,276.000 17.592 C 276.000 17.014,275.730 16.800,275.000 16.800 C 274.055 16.800,273.820 16.457,273.970 15.300 C 274.007 15.014,273.600 14.800,273.018 14.800 C 272.199 14.800,272.000 14.605,272.000 13.800 C 272.000 13.012,271.797 12.800,271.043 12.800 C 270.352 12.800,270.016 12.518,269.832 11.784 C 269.691 11.225,269.407 10.872,269.200 11.000 C 268.993 11.128,268.428 10.778,267.944 10.222 C 267.461 9.666,266.466 9.098,265.733 8.961 C 264.774 8.781,264.400 8.496,264.400 7.945 C 264.400 7.413,264.030 7.106,263.184 6.937 C 262.516 6.803,262.037 6.493,262.119 6.247 C 262.353 5.556,261.137 4.827,259.728 4.813 C 258.718 4.803,258.429 4.615,258.328 3.900 C 258.201 3.005,258.036 2.934,255.863 2.846 C 255.107 2.816,254.659 2.546,254.527 2.043 C 254.318 1.242,252.453 0.651,251.404 1.054 C 251.020 1.201,250.800 1.052,250.800 0.643 C 250.800 0.068,249.653 0.000,240.000 0.000 L 229.200 0.000 229.200 23.869 M98.800 144.600 C 99.074 144.930,99.478 145.200,99.698 145.200 C 99.921 145.200,99.878 144.935,99.600 144.600 C 99.326 144.270,98.922 144.000,98.702 144.000 C 98.479 144.000,98.522 144.265,98.800 144.600 M134.000 181.254 C 134.330 181.554,134.859 182.070,135.175 182.400 C 135.621 182.865,135.614 182.780,135.141 182.022 C 134.806 181.484,134.277 180.968,133.966 180.876 C 133.510 180.741,133.517 180.815,134.000 181.254 M134.606 212.247 C 134.166 212.918,134.100 213.233,134.422 213.126 C 134.698 213.034,135.070 212.563,135.249 212.079 C 135.683 210.907,135.443 210.969,134.606 212.247 M98.900 249.398 C 98.242 250.146,98.267 250.426,98.969 250.157 C 99.570 249.926,100.179 248.789,99.687 248.815 C 99.529 248.824,99.175 249.086,98.900 249.398 " stroke="none" fill="#0474c4" fill-rule="evenodd"></path></g></svg>