<svg id="svg" version="1.1" xmlns="http://www.w3.org/2000/svg" xmlns:xlink="http://www.w3.org/1999/xlink" width="400" height="123.3265720081136" viewBox="0, 0, 400,123.3265720081136"><g id="svgg"><path id="path0" d="M40.373 16.953 L 40.417 22.406 41.167 22.467 C 41.579 22.501,41.942 22.597,41.972 22.681 C 42.003 22.765,42.100 22.833,42.188 22.833 C 42.338 22.833,42.532 22.970,43.077 23.458 C 43.205 23.573,43.390 23.667,43.488 23.667 C 43.586 23.667,43.667 23.779,43.667 23.917 C 43.667 24.054,43.742 24.167,43.833 24.167 C 43.925 24.167,44.000 24.317,44.000 24.500 C 44.000 24.685,44.111 24.833,44.250 24.833 C 44.387 24.833,44.500 24.946,44.500 25.083 C 44.500 25.221,44.561 25.333,44.636 25.333 C 44.710 25.333,44.873 25.593,44.997 25.910 C 45.122 26.227,45.323 26.524,45.445 26.571 C 45.567 26.618,45.667 26.809,45.667 26.995 C 45.667 27.181,45.742 27.333,45.833 27.333 C 45.925 27.333,46.000 27.550,46.000 27.816 C 46.000 28.090,46.107 28.339,46.250 28.394 C 46.387 28.446,46.500 28.673,46.500 28.898 C 46.500 29.122,46.573 29.331,46.661 29.361 C 46.750 29.392,46.841 29.660,46.863 29.958 C 46.887 30.268,46.996 30.500,47.119 30.500 C 47.258 30.500,47.333 30.734,47.333 31.167 C 47.333 31.533,47.408 31.833,47.500 31.833 C 47.592 31.833,47.667 32.054,47.667 32.323 C 47.667 32.593,47.732 32.854,47.811 32.903 C 47.891 32.952,47.996 33.348,48.045 33.782 C 48.094 34.217,48.216 34.600,48.317 34.633 C 48.418 34.667,48.500 35.021,48.500 35.421 C 48.500 35.820,48.575 36.193,48.667 36.250 C 48.758 36.307,48.834 36.667,48.836 37.052 C 48.838 37.927,48.993 38.524,49.186 38.405 C 49.267 38.355,49.333 38.876,49.333 39.564 C 49.333 40.251,49.408 40.860,49.500 40.917 C 49.592 40.974,49.667 41.721,49.667 42.585 C 49.667 43.789,49.723 44.182,49.912 44.287 C 50.116 44.402,50.159 45.115,50.172 48.629 C 50.182 51.118,50.252 52.833,50.344 52.833 C 50.430 52.833,50.500 52.988,50.500 53.177 C 50.500 53.365,50.430 53.476,50.344 53.423 C 50.249 53.364,50.182 54.968,50.172 57.535 C 50.159 61.052,50.116 61.765,49.912 61.879 C 49.723 61.985,49.667 62.378,49.667 63.578 C 49.667 64.436,49.596 65.164,49.509 65.194 C 49.422 65.225,49.336 65.829,49.318 66.537 C 49.300 67.244,49.229 67.789,49.161 67.747 C 48.984 67.637,48.838 68.291,48.836 69.208 C 48.834 69.644,48.758 70.000,48.667 70.000 C 48.575 70.000,48.500 70.379,48.500 70.843 C 48.500 71.307,48.434 71.645,48.352 71.595 C 48.181 71.489,48.006 72.047,48.002 72.708 C 48.001 72.960,47.925 73.167,47.833 73.167 C 47.742 73.167,47.667 73.429,47.667 73.750 C 47.667 74.071,47.592 74.333,47.500 74.333 C 47.408 74.333,47.333 74.598,47.333 74.922 C 47.333 75.249,47.238 75.547,47.118 75.593 C 47.000 75.638,46.885 75.917,46.863 76.213 C 46.841 76.508,46.750 76.775,46.661 76.806 C 46.573 76.836,46.500 77.033,46.500 77.243 C 46.500 77.454,46.387 77.719,46.250 77.833 C 46.112 77.947,46.000 78.219,46.000 78.437 C 46.000 78.655,45.925 78.833,45.833 78.833 C 45.742 78.833,45.667 78.980,45.667 79.158 C 45.667 79.337,45.573 79.543,45.458 79.617 C 45.343 79.690,45.138 79.975,45.002 80.250 C 44.866 80.525,44.585 80.915,44.377 81.117 C 44.170 81.319,44.000 81.600,44.000 81.742 C 44.000 81.884,43.925 82.000,43.833 82.000 C 43.742 82.000,43.667 82.112,43.667 82.250 C 43.667 82.387,43.586 82.500,43.488 82.500 C 43.390 82.500,43.196 82.613,43.058 82.752 C 42.920 82.890,42.738 82.960,42.653 82.908 C 42.569 82.856,42.500 82.931,42.500 83.073 C 42.500 83.216,42.394 83.333,42.264 83.333 C 42.134 83.333,42.003 83.402,41.972 83.486 C 41.942 83.569,41.579 83.666,41.167 83.699 L 40.417 83.761 40.417 89.172 L 40.417 94.583 41.961 94.631 C 43.227 94.671,43.523 94.633,43.604 94.423 C 43.666 94.262,43.913 94.167,44.268 94.167 C 44.579 94.167,44.833 94.092,44.833 94.000 C 44.833 93.908,45.021 93.833,45.250 93.833 C 45.509 93.833,45.667 93.739,45.667 93.583 C 45.667 93.446,45.812 93.333,45.990 93.333 C 46.168 93.333,46.360 93.258,46.417 93.167 C 46.473 93.075,46.665 93.000,46.843 93.000 C 47.021 93.000,47.167 92.888,47.167 92.750 C 47.167 92.612,47.279 92.500,47.417 92.500 C 47.554 92.500,47.667 92.430,47.667 92.345 C 47.667 92.259,47.798 92.147,47.958 92.095 C 48.119 92.044,48.512 91.776,48.833 91.501 C 49.154 91.226,49.473 91.001,49.542 91.000 C 49.610 91.000,49.667 90.920,49.667 90.821 C 49.667 90.591,50.091 90.167,50.321 90.167 C 50.420 90.167,50.500 90.088,50.500 89.992 C 50.500 89.897,50.688 89.631,50.917 89.402 C 51.146 89.172,51.333 88.908,51.333 88.815 C 51.333 88.721,51.596 88.397,51.917 88.094 C 52.237 87.792,52.500 87.384,52.500 87.189 C 52.500 86.993,52.580 86.833,52.679 86.833 C 52.973 86.833,53.333 86.381,53.333 86.012 C 53.333 85.816,53.442 85.667,53.583 85.667 C 53.721 85.667,53.833 85.554,53.833 85.417 C 53.833 85.279,53.913 85.167,54.010 85.167 C 54.107 85.167,54.144 85.098,54.092 85.013 C 54.040 84.929,54.110 84.747,54.248 84.609 C 54.387 84.470,54.500 84.202,54.500 84.012 C 54.500 83.816,54.608 83.667,54.750 83.667 C 54.906 83.667,55.000 83.509,55.000 83.250 C 55.000 83.021,55.075 82.833,55.167 82.833 C 55.258 82.833,55.333 82.646,55.333 82.417 C 55.333 82.157,55.428 82.000,55.583 82.000 C 55.737 82.000,55.833 81.844,55.833 81.593 C 55.833 81.369,55.908 81.140,56.000 81.083 C 56.092 81.027,56.167 80.760,56.167 80.490 C 56.167 80.166,56.251 80.000,56.417 80.000 C 56.571 80.000,56.667 79.844,56.667 79.593 C 56.667 79.369,56.742 79.140,56.833 79.083 C 56.925 79.027,57.000 78.760,57.000 78.490 C 57.000 78.221,57.075 78.000,57.167 78.000 C 57.258 78.000,57.333 77.813,57.333 77.583 C 57.333 77.354,57.413 77.167,57.510 77.167 C 57.607 77.167,57.640 77.092,57.583 77.000 C 57.527 76.908,57.560 76.833,57.657 76.833 C 57.754 76.833,57.833 76.533,57.833 76.167 C 57.833 75.800,57.908 75.500,58.000 75.500 C 58.092 75.500,58.167 75.246,58.167 74.934 C 58.167 74.606,58.264 74.332,58.398 74.280 C 58.525 74.231,58.675 73.886,58.731 73.512 C 58.787 73.139,58.879 72.533,58.934 72.167 C 58.990 71.800,59.090 71.500,59.156 71.500 C 59.223 71.500,59.291 71.406,59.308 71.292 C 59.325 71.177,59.383 70.746,59.436 70.333 C 59.490 69.921,59.601 69.512,59.684 69.425 C 59.766 69.338,59.833 68.874,59.833 68.393 C 59.833 67.913,59.908 67.473,60.000 67.417 C 60.092 67.360,60.167 66.825,60.167 66.228 C 60.167 65.486,60.246 65.064,60.417 64.893 C 60.605 64.704,60.667 64.237,60.667 62.988 C 60.667 61.996,60.733 61.333,60.833 61.333 C 60.942 61.333,61.000 58.472,61.000 53.083 C 61.000 47.694,60.942 44.833,60.833 44.833 C 60.735 44.833,60.666 44.235,60.664 43.375 C 60.662 41.802,60.549 41.117,60.314 41.262 C 60.233 41.312,60.167 40.744,60.167 40.000 C 60.167 39.140,60.106 38.685,60.000 38.750 C 59.896 38.814,59.833 38.477,59.833 37.853 C 59.833 37.303,59.758 36.807,59.667 36.750 C 59.575 36.693,59.493 36.370,59.483 36.032 C 59.466 35.396,59.230 34.456,59.161 34.750 C 59.125 34.905,59.053 34.552,58.740 32.694 C 58.674 32.296,58.517 31.932,58.393 31.884 C 58.264 31.835,58.167 31.555,58.167 31.232 C 58.167 30.921,58.101 30.667,58.022 30.667 C 57.942 30.667,57.837 30.313,57.788 29.880 C 57.739 29.448,57.617 29.067,57.516 29.033 C 57.416 29.000,57.333 28.791,57.333 28.569 C 57.333 28.348,57.258 28.167,57.167 28.167 C 57.075 28.167,57.000 27.904,57.000 27.583 C 57.000 27.262,56.925 27.000,56.833 27.000 C 56.742 27.000,56.667 26.813,56.667 26.583 C 56.667 26.324,56.572 26.167,56.417 26.167 C 56.242 26.167,56.167 25.991,56.167 25.583 C 56.167 25.262,56.092 25.000,56.000 25.000 C 55.908 25.000,55.833 24.848,55.833 24.661 C 55.833 24.475,55.721 24.280,55.583 24.227 C 55.446 24.174,55.333 23.952,55.333 23.732 C 55.333 23.513,55.258 23.333,55.167 23.333 C 55.075 23.333,55.000 23.146,55.000 22.917 C 55.000 22.657,54.906 22.500,54.750 22.500 C 54.612 22.500,54.498 22.369,54.495 22.208 C 54.492 22.048,54.382 21.774,54.250 21.600 C 54.118 21.427,54.046 21.226,54.090 21.155 C 54.134 21.085,53.982 20.879,53.752 20.698 C 53.522 20.517,53.333 20.256,53.333 20.119 C 53.333 19.981,53.147 19.692,52.920 19.476 C 52.692 19.260,52.504 18.980,52.503 18.853 C 52.501 18.726,52.237 18.375,51.917 18.073 C 51.596 17.770,51.333 17.458,51.333 17.379 C 51.333 17.300,51.042 16.923,50.687 16.542 C 50.331 16.161,50.081 15.808,50.131 15.758 C 50.181 15.708,50.136 15.667,50.030 15.667 C 49.924 15.667,49.555 15.367,49.210 15.000 C 48.865 14.634,48.504 14.334,48.406 14.334 C 48.309 14.333,48.048 14.165,47.826 13.958 C 47.605 13.752,47.365 13.602,47.295 13.625 C 47.224 13.648,47.167 13.597,47.167 13.512 C 47.167 13.334,46.225 12.833,45.891 12.833 C 45.768 12.833,45.667 12.721,45.667 12.583 C 45.667 12.428,45.509 12.333,45.250 12.333 C 45.021 12.333,44.833 12.258,44.833 12.167 C 44.833 12.075,44.579 12.000,44.268 12.000 C 43.919 12.000,43.666 11.904,43.606 11.750 C 43.530 11.552,43.180 11.500,41.920 11.500 L 40.329 11.500 40.373 16.953 M7.123 42.233 C 6.861 42.432,6.857 42.479,7.085 42.668 C 7.298 42.845,7.324 42.837,7.242 42.624 C 7.116 42.293,7.450 42.084,7.731 42.318 C 7.963 42.510,8.215 42.380,8.069 42.143 C 7.939 41.933,7.459 41.978,7.123 42.233 M12.255 42.175 C 12.382 42.381,13.024 42.487,12.958 42.292 C 12.925 42.192,12.737 42.098,12.540 42.083 C 12.343 42.069,12.215 42.110,12.255 42.175 M13.858 42.492 C 13.930 42.707,14.159 42.745,14.179 42.546 C 14.186 42.479,14.102 42.395,13.992 42.358 C 13.882 42.322,13.822 42.382,13.858 42.492 M5.595 42.929 C 5.451 43.073,5.333 43.220,5.333 43.257 C 5.333 43.405,6.071 43.037,6.130 42.859 C 6.223 42.581,5.901 42.623,5.595 42.929 M14.676 43.018 C 14.804 43.257,14.919 43.315,15.034 43.199 C 15.245 42.988,15.064 42.667,14.734 42.667 C 14.536 42.667,14.525 42.734,14.676 43.018 M4.417 43.648 L 4.096 44.073 4.631 43.692 C 5.229 43.266,5.259 43.222,4.952 43.222 C 4.834 43.222,4.593 43.414,4.417 43.648 M15.608 43.422 C 15.663 43.564,15.746 43.643,15.793 43.596 C 15.839 43.550,16.017 43.587,16.189 43.678 C 16.360 43.770,16.500 43.807,16.500 43.760 C 16.500 43.713,16.277 43.560,16.004 43.419 C 15.557 43.188,15.519 43.188,15.608 43.422 M16.556 44.261 C 16.556 44.385,16.621 44.445,16.701 44.395 C 16.781 44.346,16.998 44.498,17.183 44.733 C 17.368 44.968,17.582 45.143,17.660 45.122 C 17.737 45.101,17.801 45.150,17.802 45.231 C 17.805 45.391,18.166 45.660,18.383 45.664 C 18.456 45.666,18.381 45.481,18.216 45.254 C 18.051 45.028,17.819 44.877,17.700 44.919 C 17.577 44.963,17.530 44.919,17.593 44.818 C 17.653 44.720,17.526 44.516,17.311 44.366 C 16.809 44.014,16.556 43.979,16.556 44.261 M3.299 44.494 C 3.182 44.680,2.992 44.833,2.877 44.833 C 2.761 44.833,2.667 44.946,2.667 45.083 C 2.667 45.221,2.554 45.333,2.417 45.333 C 2.279 45.333,2.167 45.443,2.167 45.578 C 2.167 45.919,2.629 45.714,2.755 45.318 C 2.810 45.143,3.005 45.000,3.188 45.000 C 3.370 45.000,3.476 44.930,3.423 44.844 C 3.370 44.758,3.450 44.618,3.601 44.533 C 3.782 44.432,3.814 44.341,3.694 44.267 C 3.593 44.205,3.415 44.307,3.299 44.494 M1.365 46.827 C 0.796 47.595,0.910 47.913,1.574 47.411 C 1.751 47.277,1.808 47.167,1.699 47.167 C 1.422 47.167,1.451 46.906,1.762 46.595 C 1.906 46.451,1.958 46.333,1.877 46.333 C 1.796 46.333,1.565 46.555,1.365 46.827 M18.667 46.528 C 18.667 46.635,18.716 46.673,18.777 46.612 C 18.899 46.490,19.437 47.178,19.374 47.375 C 19.352 47.444,19.408 47.500,19.500 47.500 C 19.745 47.500,19.708 47.376,19.302 46.827 C 18.923 46.314,18.667 46.193,18.667 46.528 M0.417 48.628 C 0.134 48.835,0.174 49.096,0.493 49.120 C 0.715 49.137,0.773 49.057,0.712 48.822 C 0.666 48.645,0.618 48.501,0.606 48.503 C 0.593 48.504,0.508 48.560,0.417 48.628 M20.000 48.799 C 20.000 48.887,20.106 49.048,20.237 49.156 C 20.427 49.313,20.465 49.295,20.430 49.060 C 20.386 48.755,20.000 48.521,20.000 48.799 M0.169 49.445 C 0.168 49.552,0.121 49.758,0.066 49.903 C 0.010 50.048,0.039 50.167,0.131 50.167 C 0.377 50.167,0.491 49.755,0.320 49.485 C 0.229 49.341,0.171 49.325,0.169 49.445 M20.339 49.771 C 20.336 49.966,20.446 50.219,20.583 50.333 C 20.895 50.592,20.895 50.379,20.583 49.833 C 20.359 49.441,20.345 49.437,20.339 49.771 M20.215 56.333 C 20.255 56.471,20.223 56.710,20.144 56.865 C 20.056 57.035,20.065 57.187,20.166 57.250 C 20.258 57.307,20.339 57.292,20.346 57.218 C 20.353 57.144,20.382 56.962,20.411 56.814 C 20.440 56.666,20.391 56.441,20.303 56.314 C 20.170 56.124,20.154 56.127,20.215 56.333 M0.667 58.058 C 0.667 58.377,1.260 59.153,1.624 59.309 C 2.021 59.479,2.044 59.475,1.794 59.278 C 1.635 59.153,1.549 59.007,1.602 58.953 C 1.655 58.900,1.542 58.758,1.350 58.638 C 1.157 58.518,1.000 58.325,1.000 58.210 C 1.000 58.094,0.925 58.000,0.833 58.000 C 0.742 58.000,0.667 58.026,0.667 58.058 M19.321 58.592 C 19.314 58.679,19.281 58.892,19.248 59.066 C 19.193 59.359,19.209 59.362,19.462 59.109 C 19.676 58.896,19.692 58.792,19.535 58.635 C 19.424 58.524,19.328 58.505,19.321 58.592 M2.167 60.451 C 2.167 60.855,2.998 61.224,3.278 60.944 C 3.354 60.868,3.342 60.821,3.250 60.839 C 2.921 60.906,2.686 60.829,2.429 60.571 C 2.285 60.427,2.167 60.373,2.167 60.451 M17.542 61.213 C 17.153 61.391,17.033 61.667,17.345 61.667 C 17.541 61.667,18.077 61.184,17.978 61.096 C 17.944 61.066,17.748 61.119,17.542 61.213 M3.244 61.344 C 3.099 61.578,3.671 62.201,3.937 62.099 C 4.051 62.055,4.182 62.091,4.227 62.180 C 4.272 62.269,4.287 62.246,4.262 62.129 C 4.236 62.012,4.093 61.938,3.944 61.965 C 3.759 61.998,3.703 61.931,3.770 61.757 C 3.835 61.589,3.773 61.500,3.591 61.500 C 3.439 61.500,3.360 61.425,3.417 61.333 C 3.473 61.242,3.482 61.167,3.436 61.167 C 3.391 61.167,3.304 61.246,3.244 61.344 M16.222 62.114 C 16.222 62.244,16.293 62.272,16.403 62.185 C 16.502 62.107,16.715 62.064,16.875 62.090 C 17.035 62.116,17.167 62.068,17.167 61.983 C 17.167 61.898,16.954 61.844,16.694 61.864 C 16.435 61.884,16.222 61.996,16.222 62.114 M4.669 62.670 C 4.867 63.042,5.090 63.093,5.266 62.808 C 5.340 62.688,5.312 62.660,5.192 62.734 C 5.087 62.799,5.000 62.782,5.000 62.694 C 5.000 62.607,4.886 62.492,4.746 62.438 C 4.539 62.359,4.525 62.402,4.669 62.670 M13.983 63.250 C 13.971 63.342,13.969 63.470,13.978 63.536 C 13.988 63.601,13.884 63.612,13.748 63.560 C 13.612 63.507,13.500 63.547,13.500 63.649 C 13.500 63.750,13.444 63.824,13.375 63.814 C 12.890 63.737,12.612 63.846,12.804 64.037 C 12.965 64.199,13.077 64.199,13.335 64.037 C 13.515 63.925,13.813 63.833,13.998 63.833 C 14.182 63.833,14.332 63.777,14.331 63.708 C 14.326 63.495,14.006 63.074,13.983 63.250 M6.431 63.560 C 6.488 63.710,6.663 63.833,6.818 63.833 C 6.973 63.833,7.207 63.927,7.337 64.042 C 7.468 64.156,7.433 64.081,7.260 63.874 C 7.088 63.667,6.909 63.535,6.864 63.581 C 6.818 63.626,6.678 63.579,6.553 63.475 C 6.373 63.326,6.348 63.344,6.431 63.560 " stroke="none" fill="#0771c0" fill-rule="evenodd"></path><path id="path1" d="M23.000 26.000 L 23.000 30.667 23.583 30.667 C 23.904 30.667,24.167 30.742,24.167 30.833 C 24.167 30.925,24.317 31.000,24.501 31.000 C 24.848 31.000,26.996 33.054,27.005 33.395 C 27.013 33.671,27.423 34.167,27.643 34.167 C 27.748 34.167,27.833 34.354,27.833 34.583 C 27.833 34.813,27.908 35.000,28.000 35.000 C 28.092 35.000,28.167 35.188,28.167 35.417 C 28.167 35.676,28.261 35.833,28.417 35.833 C 28.591 35.833,28.667 36.009,28.667 36.417 C 28.667 36.737,28.742 37.000,28.833 37.000 C 28.925 37.000,29.000 37.221,29.000 37.490 C 29.000 37.760,29.068 38.023,29.152 38.074 C 29.236 38.126,29.355 38.468,29.417 38.834 C 29.479 39.200,29.598 39.500,29.681 39.500 C 29.765 39.500,29.833 39.762,29.833 40.083 C 29.833 40.404,29.899 40.667,29.979 40.667 C 30.060 40.667,30.161 41.094,30.204 41.617 C 30.247 42.139,30.369 42.595,30.475 42.630 C 30.590 42.669,30.667 43.082,30.667 43.667 C 30.667 44.201,30.738 44.664,30.825 44.694 C 30.912 44.725,30.997 45.525,31.013 46.472 C 31.034 47.758,31.099 48.215,31.271 48.281 C 31.628 48.418,31.608 57.756,31.250 57.894 C 31.050 57.971,31.000 58.339,31.000 59.755 C 31.000 60.889,30.940 61.483,30.833 61.417 C 30.729 61.352,30.665 61.708,30.661 62.365 C 30.658 63.024,30.565 63.537,30.411 63.740 C 30.277 63.918,30.167 64.387,30.167 64.782 C 30.167 65.177,30.092 65.500,30.000 65.500 C 29.908 65.500,29.833 65.762,29.833 66.083 C 29.833 66.404,29.765 66.667,29.681 66.667 C 29.598 66.667,29.479 66.966,29.417 67.332 C 29.355 67.699,29.236 68.041,29.152 68.092 C 29.068 68.144,29.000 68.407,29.000 68.677 C 29.000 68.946,28.925 69.167,28.833 69.167 C 28.742 69.167,28.667 69.429,28.667 69.750 C 28.667 70.157,28.591 70.333,28.417 70.333 C 28.261 70.333,28.167 70.491,28.167 70.750 C 28.167 70.979,28.092 71.167,28.000 71.167 C 27.908 71.167,27.833 71.354,27.833 71.583 C 27.833 71.813,27.753 72.000,27.655 72.000 C 27.361 72.000,27.000 72.452,27.000 72.821 C 27.000 73.011,26.920 73.167,26.821 73.167 C 26.627 73.167,26.167 73.577,26.167 73.750 C 26.167 73.923,25.706 74.333,25.512 74.333 C 25.414 74.333,25.333 74.414,25.333 74.512 C 25.333 74.806,24.881 75.167,24.512 75.167 C 24.322 75.167,24.167 75.242,24.167 75.333 C 24.167 75.425,23.904 75.500,23.583 75.500 L 23.000 75.500 23.000 80.167 L 23.000 84.833 24.490 84.833 C 25.310 84.833,26.027 84.758,26.083 84.667 C 26.140 84.575,26.444 84.500,26.760 84.500 C 27.159 84.500,27.333 84.424,27.333 84.250 C 27.333 84.094,27.491 84.000,27.750 84.000 C 27.979 84.000,28.167 83.925,28.167 83.833 C 28.167 83.742,28.322 83.667,28.512 83.667 C 28.881 83.667,29.333 83.306,29.333 83.012 C 29.333 82.914,29.493 82.833,29.689 82.833 C 29.884 82.833,30.292 82.571,30.594 82.250 C 30.897 81.929,31.224 81.667,31.322 81.667 C 31.420 81.667,31.500 81.586,31.500 81.488 C 31.500 81.294,31.910 80.833,32.083 80.833 C 32.222 80.833,32.667 80.389,32.667 80.251 C 32.667 80.192,32.929 79.897,33.250 79.594 C 33.571 79.292,33.833 78.884,33.833 78.689 C 33.833 78.493,33.919 78.333,34.023 78.333 C 34.279 78.333,34.655 77.819,34.661 77.458 C 34.664 77.298,34.752 77.167,34.857 77.167 C 35.113 77.167,35.488 76.652,35.495 76.292 C 35.498 76.131,35.575 76.000,35.667 76.000 C 35.758 76.000,35.833 75.821,35.833 75.601 C 35.833 75.382,35.946 75.159,36.083 75.106 C 36.221 75.054,36.333 74.858,36.333 74.672 C 36.333 74.486,36.408 74.333,36.500 74.333 C 36.592 74.333,36.667 74.154,36.667 73.934 C 36.667 73.715,36.779 73.492,36.917 73.440 C 37.054 73.387,37.167 73.191,37.167 73.005 C 37.167 72.819,37.242 72.667,37.333 72.667 C 37.425 72.667,37.500 72.511,37.500 72.321 C 37.500 72.132,37.612 71.864,37.750 71.726 C 37.887 71.589,38.000 71.294,38.000 71.071 C 38.000 70.849,38.075 70.667,38.167 70.667 C 38.258 70.667,38.333 70.404,38.333 70.083 C 38.333 69.762,38.408 69.500,38.500 69.500 C 38.592 69.500,38.667 69.209,38.667 68.854 C 38.667 68.483,38.773 68.119,38.917 68.000 C 39.060 67.881,39.167 67.517,39.167 67.146 C 39.167 66.791,39.242 66.500,39.333 66.500 C 39.425 66.500,39.500 66.169,39.500 65.764 C 39.500 65.335,39.584 65.000,39.702 64.960 C 39.903 64.893,40.104 63.650,40.274 61.417 C 40.323 60.775,40.450 60.145,40.557 60.016 C 40.959 59.531,40.903 45.834,40.500 46.083 C 40.422 46.132,40.319 45.551,40.270 44.794 C 40.130 42.576,39.979 41.622,39.732 41.375 C 39.604 41.247,39.500 40.815,39.500 40.415 C 39.500 40.014,39.425 39.640,39.333 39.583 C 39.242 39.527,39.167 39.228,39.167 38.919 C 39.167 38.610,39.054 38.245,38.917 38.107 C 38.779 37.970,38.667 37.589,38.667 37.262 C 38.667 36.935,38.592 36.667,38.500 36.667 C 38.408 36.667,38.333 36.404,38.333 36.083 C 38.333 35.762,38.258 35.500,38.167 35.500 C 38.075 35.500,38.000 35.318,38.000 35.095 C 38.000 34.873,37.888 34.578,37.750 34.440 C 37.613 34.303,37.500 34.035,37.500 33.845 C 37.500 33.655,37.425 33.500,37.333 33.500 C 37.242 33.500,37.167 33.348,37.167 33.161 C 37.167 32.975,37.054 32.780,36.917 32.727 C 36.779 32.674,36.667 32.452,36.667 32.232 C 36.667 32.013,36.592 31.833,36.500 31.833 C 36.408 31.833,36.333 31.646,36.333 31.417 C 36.333 31.157,36.239 31.000,36.083 31.000 C 35.928 31.000,35.833 30.843,35.833 30.583 C 35.833 30.354,35.758 30.167,35.667 30.167 C 35.575 30.167,35.498 30.035,35.495 29.875 C 35.488 29.515,35.113 29.000,34.857 29.000 C 34.752 29.000,34.667 28.845,34.667 28.655 C 34.667 28.286,34.306 27.833,34.012 27.833 C 33.914 27.833,33.833 27.646,33.833 27.417 C 33.833 27.188,33.758 27.000,33.667 27.000 C 33.575 27.000,33.500 26.887,33.500 26.750 C 33.500 26.613,33.420 26.500,33.321 26.500 C 33.127 26.500,32.667 26.090,32.667 25.917 C 32.667 25.784,32.225 25.333,32.095 25.333 C 31.929 25.333,30.667 24.007,30.667 23.833 C 30.667 23.742,30.554 23.667,30.417 23.667 C 30.279 23.667,30.167 23.592,30.167 23.500 C 30.167 23.408,29.979 23.333,29.750 23.333 C 29.521 23.333,29.333 23.248,29.333 23.143 C 29.333 22.892,28.821 22.512,28.472 22.505 C 28.319 22.502,28.169 22.444,28.139 22.375 C 28.038 22.147,26.980 21.667,26.580 21.667 C 26.363 21.667,26.140 21.592,26.083 21.500 C 26.027 21.408,25.310 21.333,24.490 21.333 L 23.000 21.333 23.000 26.000 " stroke="none" fill="#bc0c33" fill-rule="evenodd"></path><path id="path2" d="M8.096 42.188 C 8.138 42.255,8.101 42.354,8.014 42.408 C 7.927 42.462,7.811 42.432,7.756 42.343 C 7.594 42.081,7.136 42.346,7.248 42.637 C 7.330 42.853,7.292 42.848,7.028 42.608 C 6.729 42.338,6.701 42.338,6.600 42.600 C 6.541 42.755,6.445 42.834,6.388 42.776 C 6.330 42.719,6.196 42.791,6.089 42.937 C 5.982 43.084,5.662 43.213,5.378 43.224 C 5.095 43.236,4.895 43.298,4.934 43.361 C 4.974 43.425,4.686 43.669,4.295 43.904 C 3.903 44.138,3.658 44.333,3.750 44.337 C 3.842 44.340,3.784 44.421,3.621 44.515 C 3.459 44.610,3.370 44.758,3.423 44.844 C 3.476 44.930,3.370 45.000,3.188 45.000 C 3.005 45.000,2.809 45.146,2.753 45.325 C 2.696 45.503,2.503 45.696,2.325 45.753 C 2.146 45.809,2.000 45.926,2.000 46.011 C 2.000 46.288,1.944 46.413,1.720 46.637 C 1.443 46.915,1.437 47.166,1.708 47.168 C 1.823 47.168,1.692 47.318,1.417 47.500 C 1.142 47.682,0.992 47.834,1.083 47.838 C 1.175 47.841,1.109 47.950,0.937 48.081 C 0.722 48.244,0.651 48.452,0.708 48.752 C 0.766 49.059,0.728 49.162,0.578 49.104 C 0.265 48.984,0.156 49.169,0.339 49.510 C 0.455 49.727,0.427 49.883,0.240 50.070 C -0.174 50.484,0.040 56.986,0.472 57.130 C 0.579 57.165,0.667 57.376,0.667 57.597 C 0.667 57.819,0.742 58.000,0.833 58.000 C 0.925 58.000,1.000 58.082,1.000 58.182 C 1.000 58.282,1.169 58.512,1.375 58.694 C 1.581 58.876,1.637 58.976,1.500 58.915 C 1.363 58.854,1.438 58.962,1.667 59.154 C 2.017 59.449,2.030 59.489,1.750 59.405 L 1.417 59.306 1.750 59.581 C 1.933 59.733,2.062 59.934,2.036 60.029 C 1.947 60.352,2.777 60.926,3.221 60.849 C 3.296 60.836,3.310 60.903,3.251 60.999 C 3.192 61.094,3.074 61.129,2.988 61.076 C 2.903 61.023,2.833 61.054,2.833 61.144 C 2.833 61.233,3.064 61.357,3.345 61.419 C 3.674 61.492,3.827 61.610,3.772 61.752 C 3.726 61.873,3.799 62.015,3.936 62.068 C 4.094 62.128,4.141 62.094,4.066 61.972 C 3.994 61.855,4.022 61.827,4.141 61.901 C 4.247 61.966,4.333 62.132,4.333 62.270 C 4.333 62.407,4.404 62.476,4.490 62.423 C 4.576 62.370,4.790 62.480,4.965 62.667 C 5.161 62.877,5.390 62.968,5.560 62.903 C 5.766 62.823,5.811 62.865,5.734 63.065 C 5.655 63.270,5.735 63.333,6.075 63.333 C 6.320 63.333,6.477 63.402,6.426 63.485 C 6.374 63.569,6.463 63.617,6.624 63.591 C 6.785 63.566,7.123 63.690,7.375 63.867 C 7.778 64.150,7.833 64.156,7.833 63.918 C 7.833 63.769,7.910 63.694,8.003 63.752 C 8.096 63.809,8.129 63.926,8.077 64.010 C 7.940 64.232,12.219 64.149,12.372 63.927 C 12.454 63.809,12.496 63.820,12.497 63.958 C 12.499 64.073,12.579 64.167,12.677 64.167 C 12.774 64.167,12.807 64.092,12.750 64.000 C 12.660 63.855,12.998 63.754,13.375 63.814 C 13.444 63.824,13.500 63.750,13.500 63.649 C 13.500 63.547,13.612 63.507,13.748 63.560 C 13.884 63.612,13.988 63.601,13.978 63.536 C 13.932 63.226,14.019 63.105,14.145 63.304 C 14.261 63.487,14.324 63.487,14.517 63.304 C 14.645 63.183,14.929 63.058,15.147 63.027 C 15.366 62.997,15.628 62.903,15.731 62.819 C 16.245 62.398,16.578 62.097,16.411 62.206 C 16.301 62.277,16.222 62.228,16.222 62.090 C 16.222 61.959,16.266 61.857,16.319 61.862 C 16.879 61.923,17.311 61.802,17.236 61.607 C 17.183 61.468,17.343 61.301,17.656 61.171 C 17.934 61.056,18.128 60.906,18.086 60.838 C 18.045 60.771,18.190 60.546,18.410 60.340 C 18.648 60.116,18.769 59.860,18.710 59.705 C 18.649 59.546,18.679 59.488,18.787 59.555 C 18.884 59.615,19.092 59.468,19.249 59.228 C 19.406 58.988,19.453 58.843,19.353 58.905 C 19.239 58.975,19.208 58.921,19.269 58.760 C 19.324 58.618,19.435 58.543,19.517 58.594 C 19.600 58.645,19.667 58.532,19.667 58.343 C 19.667 58.154,19.742 58.000,19.833 58.000 C 19.925 58.000,20.000 57.896,20.000 57.768 C 20.000 57.640,20.112 57.492,20.250 57.440 C 20.387 57.387,20.494 57.248,20.487 57.130 C 20.476 56.962,20.456 56.961,20.389 57.126 C 20.343 57.241,20.240 57.295,20.160 57.246 C 19.943 57.112,20.171 56.651,20.392 56.775 C 20.508 56.840,20.501 56.793,20.375 56.658 C 20.260 56.534,20.168 56.355,20.169 56.258 C 20.171 56.162,20.244 56.196,20.333 56.333 C 20.463 56.534,20.495 56.508,20.497 56.198 C 20.499 55.987,20.563 55.852,20.639 55.899 C 20.849 56.029,20.811 55.435,20.600 55.294 C 20.476 55.212,20.474 55.171,20.593 55.169 C 20.705 55.168,20.778 54.548,20.791 53.497 C 20.806 52.252,20.761 51.858,20.614 51.946 C 20.470 52.032,20.463 51.999,20.590 51.824 C 20.881 51.419,20.878 50.659,20.585 50.335 C 20.404 50.135,20.336 49.853,20.389 49.520 C 20.441 49.188,20.402 49.023,20.276 49.047 C 20.170 49.067,20.060 48.840,20.031 48.542 C 20.002 48.244,19.909 48.000,19.823 48.000 C 19.737 48.000,19.667 47.887,19.667 47.750 C 19.667 47.612,19.592 47.500,19.500 47.500 C 19.408 47.500,19.352 47.444,19.374 47.375 C 19.444 47.158,18.893 46.496,18.750 46.626 C 18.675 46.694,18.657 46.627,18.711 46.477 C 18.811 46.196,18.293 45.500,17.984 45.500 C 17.890 45.500,17.855 45.433,17.905 45.352 C 17.955 45.271,17.870 45.102,17.716 44.977 C 17.476 44.782,17.454 44.785,17.565 45.000 C 17.636 45.137,17.500 45.039,17.263 44.782 C 17.000 44.496,16.752 44.363,16.625 44.439 C 16.495 44.517,16.509 44.442,16.661 44.240 C 16.796 44.062,16.846 43.967,16.772 44.028 C 16.699 44.089,16.492 43.992,16.313 43.813 C 16.134 43.634,15.903 43.540,15.799 43.605 C 15.677 43.680,15.646 43.629,15.710 43.461 C 15.788 43.258,15.702 43.209,15.310 43.236 C 14.968 43.260,14.759 43.172,14.643 42.956 C 14.547 42.776,14.370 42.681,14.231 42.734 C 14.097 42.786,13.945 42.716,13.893 42.581 C 13.840 42.445,13.671 42.333,13.516 42.333 C 13.360 42.333,13.139 42.240,13.023 42.125 C 12.855 41.958,12.836 41.975,12.925 42.210 C 13.036 42.501,12.725 42.484,12.250 42.172 C 12.034 42.031,11.472 42.053,11.220 42.214 C 11.112 42.282,10.979 42.268,10.926 42.182 C 10.873 42.095,10.197 42.034,9.425 42.045 C 8.653 42.056,8.055 42.121,8.096 42.188 " stroke="none" fill="#7334a3" fill-rule="evenodd"></path><path id="path3" d="M251.273 25.917 C 251.220 26.054,251.059 26.167,250.914 26.167 C 250.770 26.167,250.464 26.354,250.235 26.583 C 250.006 26.813,249.709 27.000,249.576 27.000 C 249.442 27.000,249.333 27.075,249.333 27.167 C 249.333 27.258,249.146 27.333,248.917 27.333 C 248.657 27.333,248.500 27.428,248.500 27.583 C 248.500 27.758,248.324 27.833,247.917 27.833 C 247.596 27.833,247.333 27.908,247.333 28.000 C 247.333 28.092,247.075 28.167,246.760 28.167 C 246.444 28.167,246.140 28.242,246.083 28.333 C 246.027 28.425,245.757 28.500,245.485 28.500 C 245.198 28.500,244.949 28.605,244.894 28.750 C 244.834 28.904,244.581 29.000,244.232 29.000 C 243.921 29.000,243.667 29.075,243.667 29.167 C 243.667 29.258,243.554 29.333,243.417 29.333 C 243.222 29.333,243.167 29.556,243.167 30.333 C 243.167 31.324,243.171 31.333,243.646 31.333 C 243.910 31.333,244.219 31.446,244.333 31.583 C 244.447 31.721,244.794 31.833,245.104 31.833 C 245.413 31.833,245.667 31.908,245.667 32.000 C 245.667 32.092,245.854 32.167,246.083 32.167 C 246.417 32.167,246.500 32.250,246.500 32.583 C 246.500 32.813,246.575 33.000,246.667 33.000 C 246.777 33.000,246.833 38.358,246.833 48.740 C 246.833 59.054,246.776 64.516,246.667 64.583 C 246.575 64.640,246.500 64.869,246.500 65.093 C 246.500 65.344,246.404 65.500,246.250 65.500 C 246.112 65.500,246.000 65.575,246.000 65.667 C 246.000 65.758,245.850 65.833,245.667 65.833 C 245.483 65.833,245.333 65.899,245.333 65.979 C 245.333 66.059,245.033 66.172,244.667 66.231 C 244.300 66.289,244.000 66.411,244.000 66.502 C 244.000 66.593,243.737 66.667,243.417 66.667 C 243.096 66.667,242.833 66.747,242.833 66.845 C 242.833 66.943,242.721 67.136,242.583 67.274 C 242.243 67.615,242.269 68.208,242.645 68.641 C 242.954 68.998,242.993 69.000,250.145 69.000 L 257.333 69.000 257.333 67.833 L 257.333 66.667 256.750 66.667 C 256.429 66.667,256.167 66.595,256.167 66.508 C 256.167 66.420,255.904 66.299,255.583 66.239 C 255.262 66.179,255.000 66.063,255.000 65.981 C 255.000 65.900,254.845 65.833,254.655 65.833 C 254.217 65.833,253.833 65.455,253.833 65.024 C 253.833 64.840,253.721 64.578,253.583 64.440 C 253.269 64.126,253.199 49.167,253.512 49.167 C 253.706 49.167,254.167 48.756,254.167 48.583 C 254.167 48.351,254.661 48.000,254.988 48.000 C 255.178 48.000,255.333 47.925,255.333 47.833 C 255.333 47.742,255.437 47.667,255.563 47.667 C 255.689 47.667,255.886 47.554,256.000 47.417 C 256.114 47.279,256.386 47.167,256.604 47.167 C 256.822 47.167,257.000 47.092,257.000 47.000 C 257.000 46.898,257.778 46.833,259.000 46.833 C 260.222 46.833,261.000 46.898,261.000 47.000 C 261.000 47.092,261.151 47.167,261.336 47.167 C 261.521 47.167,261.927 47.429,262.239 47.750 C 262.551 48.071,262.887 48.333,262.986 48.333 C 263.085 48.333,263.167 48.446,263.167 48.583 C 263.167 48.721,263.233 48.833,263.314 48.833 C 263.462 48.833,263.565 49.223,263.810 50.712 C 263.882 51.150,264.029 51.596,264.137 51.704 C 264.464 52.031,264.412 63.434,264.083 63.560 C 263.919 63.623,263.833 63.884,263.833 64.318 C 263.833 64.682,263.758 65.027,263.667 65.083 C 263.575 65.140,263.500 65.314,263.500 65.469 C 263.500 65.735,263.067 65.996,262.208 66.246 C 262.002 66.307,261.833 66.426,261.833 66.511 C 261.833 66.597,261.571 66.667,261.250 66.667 C 260.739 66.667,260.667 66.718,260.667 67.083 C 260.667 67.313,260.592 67.500,260.500 67.500 C 260.271 67.500,260.291 68.009,260.542 68.549 L 260.750 68.997 267.799 68.999 L 274.849 69.000 274.799 67.875 L 274.750 66.750 274.168 66.695 C 273.848 66.664,273.540 66.565,273.484 66.474 C 273.427 66.383,273.071 66.266,272.691 66.215 C 272.311 66.164,272.000 66.058,272.000 65.978 C 272.000 65.898,271.831 65.833,271.625 65.832 C 271.236 65.831,270.833 65.219,270.833 64.628 C 270.833 64.460,270.721 64.280,270.583 64.227 C 270.366 64.144,270.333 63.119,270.333 56.409 C 270.333 51.440,270.274 48.650,270.167 48.583 C 270.075 48.527,270.000 48.185,270.000 47.823 C 270.000 47.351,269.930 47.167,269.750 47.167 C 269.594 47.167,269.500 47.009,269.500 46.750 C 269.500 46.521,269.425 46.333,269.333 46.333 C 269.242 46.333,269.167 46.211,269.167 46.061 C 269.167 45.912,268.904 45.542,268.583 45.239 C 268.262 44.937,268.000 44.609,268.000 44.511 C 268.000 44.413,267.926 44.333,267.836 44.333 C 267.746 44.333,267.402 44.071,267.072 43.750 C 266.740 43.428,266.300 43.167,266.089 43.167 C 265.879 43.167,265.614 43.054,265.500 42.917 C 265.386 42.779,265.156 42.667,264.989 42.667 C 264.823 42.667,264.640 42.592,264.583 42.500 C 264.527 42.408,263.885 42.333,263.157 42.333 C 262.386 42.333,261.833 42.264,261.833 42.167 C 261.833 42.075,261.496 42.000,261.083 42.000 C 260.671 42.000,260.333 42.075,260.333 42.167 C 260.333 42.261,259.860 42.333,259.248 42.333 C 258.651 42.333,258.032 42.396,257.873 42.472 C 257.714 42.548,257.334 42.735,257.028 42.888 C 256.723 43.041,256.378 43.167,256.261 43.167 C 256.144 43.167,255.846 43.354,255.599 43.583 C 255.352 43.813,255.060 44.002,254.950 44.005 C 254.691 44.012,254.167 44.410,254.165 44.602 C 254.165 44.683,253.977 44.837,253.749 44.943 L 253.333 45.135 253.333 37.082 C 253.333 30.840,253.380 29.012,253.539 28.959 C 253.889 28.843,253.930 26.288,253.588 25.945 C 253.213 25.570,251.414 25.548,251.273 25.917 M90.369 42.427 C 90.160 42.650,89.878 42.833,89.744 42.833 C 89.610 42.833,89.500 42.908,89.500 43.000 C 89.500 43.092,89.388 43.167,89.250 43.167 C 89.112 43.167,89.000 43.242,89.000 43.333 C 89.000 43.425,88.855 43.500,88.679 43.500 C 88.502 43.500,88.245 43.612,88.107 43.750 C 87.970 43.887,87.664 44.000,87.429 44.000 C 87.193 44.000,87.000 44.075,87.000 44.167 C 87.000 44.258,86.821 44.333,86.601 44.333 C 86.382 44.333,86.159 44.446,86.106 44.583 C 86.043 44.748,85.782 44.833,85.339 44.833 C 84.969 44.833,84.667 44.908,84.667 45.000 C 84.667 45.092,84.394 45.167,84.060 45.167 C 83.267 45.167,83.012 45.523,83.005 46.637 C 82.999 47.741,83.233 48.000,84.238 48.000 C 84.657 48.000,85.000 48.075,85.000 48.167 C 85.000 48.258,85.188 48.333,85.417 48.333 C 85.718 48.333,85.833 48.423,85.833 48.657 C 85.833 48.835,85.908 49.027,86.000 49.083 C 86.092 49.140,86.167 49.439,86.167 49.748 C 86.167 50.057,86.279 50.422,86.417 50.560 C 86.630 50.773,86.667 51.707,86.667 56.887 C 86.667 62.135,86.633 62.977,86.417 63.060 C 86.236 63.130,86.167 63.412,86.167 64.078 C 86.167 64.585,86.092 65.000,86.000 65.000 C 85.908 65.000,85.833 65.112,85.833 65.250 C 85.833 65.387,85.772 65.500,85.698 65.500 C 85.624 65.500,85.415 65.638,85.234 65.807 C 85.053 65.975,84.571 66.158,84.164 66.213 C 83.757 66.267,83.397 66.392,83.365 66.489 C 83.332 66.587,83.049 66.667,82.736 66.667 L 82.167 66.667 82.167 67.833 L 82.167 69.000 89.250 69.000 L 96.333 69.000 96.333 67.833 L 96.333 66.667 95.750 66.667 C 95.429 66.667,95.167 66.595,95.167 66.508 C 95.167 66.420,94.890 66.296,94.551 66.233 C 93.758 66.084,93.167 65.494,93.167 64.853 C 93.167 64.580,93.054 64.245,92.917 64.107 C 92.602 63.793,92.532 49.167,92.845 49.167 C 93.061 49.167,93.500 48.748,93.500 48.543 C 93.500 48.462,93.763 48.293,94.083 48.167 C 94.404 48.041,94.667 47.877,94.667 47.802 C 94.667 47.728,94.771 47.667,94.899 47.667 C 95.027 47.667,95.174 47.554,95.227 47.417 C 95.283 47.271,95.533 47.167,95.828 47.167 C 96.106 47.167,96.333 47.092,96.333 47.000 C 96.333 46.900,97.024 46.833,98.073 46.833 C 99.054 46.833,99.859 46.906,99.917 47.000 C 99.973 47.092,100.155 47.167,100.320 47.167 C 100.485 47.167,100.761 47.354,100.933 47.583 C 101.105 47.813,101.340 48.000,101.456 48.000 C 101.572 48.000,101.667 48.146,101.667 48.323 C 101.667 48.501,101.742 48.693,101.833 48.750 C 101.925 48.807,102.000 48.991,102.000 49.159 C 102.000 49.327,102.112 49.508,102.250 49.560 C 102.421 49.626,102.500 49.894,102.500 50.411 C 102.500 50.827,102.575 51.167,102.667 51.167 C 102.775 51.167,102.833 53.389,102.833 57.500 C 102.833 61.611,102.775 63.833,102.667 63.833 C 102.575 63.833,102.500 64.208,102.500 64.667 C 102.500 65.133,102.424 65.500,102.326 65.500 C 102.231 65.500,101.992 65.650,101.795 65.833 C 101.598 66.017,101.316 66.167,101.167 66.167 C 101.019 66.167,100.751 66.277,100.574 66.411 C 100.396 66.546,100.006 66.658,99.708 66.661 L 99.167 66.667 99.167 67.833 L 99.167 69.000 105.833 69.000 L 112.500 69.000 112.500 67.833 L 112.500 66.667 111.988 66.667 C 111.707 66.667,111.364 66.554,111.226 66.417 C 111.089 66.279,110.794 66.167,110.571 66.167 C 110.349 66.167,110.167 66.092,110.167 66.000 C 110.167 65.908,110.086 65.833,109.988 65.833 C 109.632 65.833,109.333 65.344,109.333 64.762 C 109.333 64.435,109.258 64.167,109.167 64.167 C 109.058 64.167,109.000 61.500,109.000 56.500 C 109.000 51.500,109.058 48.833,109.167 48.833 C 109.258 48.833,109.333 48.753,109.333 48.655 C 109.333 48.361,109.786 48.000,110.155 48.000 C 110.345 48.000,110.500 47.933,110.500 47.851 C 110.500 47.770,110.688 47.656,110.917 47.598 C 111.146 47.541,111.333 47.420,111.333 47.330 C 111.333 47.240,111.516 47.167,111.740 47.167 C 111.964 47.167,112.193 47.092,112.250 47.000 C 112.309 46.905,113.168 46.833,114.260 46.833 C 115.420 46.833,116.167 46.899,116.167 47.000 C 116.167 47.092,116.354 47.167,116.583 47.167 C 116.843 47.167,117.000 47.261,117.000 47.417 C 117.000 47.554,117.080 47.667,117.179 47.667 C 117.502 47.667,117.813 48.100,118.524 49.539 C 118.602 49.699,118.667 50.130,118.667 50.498 C 118.667 50.866,118.742 51.167,118.833 51.167 C 118.941 51.167,119.000 53.358,119.000 57.407 C 119.000 61.387,118.940 63.684,118.833 63.750 C 118.742 63.807,118.667 64.191,118.667 64.605 C 118.667 65.330,118.398 65.833,118.012 65.833 C 117.914 65.833,117.833 65.908,117.833 66.000 C 117.833 66.092,117.651 66.167,117.429 66.167 C 117.206 66.167,116.911 66.279,116.774 66.417 C 116.636 66.554,116.300 66.667,116.027 66.667 C 115.466 66.667,115.193 67.483,115.416 68.496 L 115.526 69.000 122.604 69.000 L 129.682 69.000 129.633 67.875 L 129.583 66.750 129.001 66.695 C 128.681 66.664,128.373 66.565,128.317 66.474 C 128.261 66.383,127.904 66.266,127.524 66.215 C 127.144 66.164,126.833 66.058,126.833 65.978 C 126.833 65.898,126.756 65.833,126.661 65.833 C 126.208 65.833,125.500 64.814,125.500 64.161 C 125.500 63.797,125.425 63.500,125.333 63.500 C 125.225 63.500,125.167 60.832,125.167 55.828 C 125.167 49.162,125.134 48.144,124.917 48.060 C 124.762 48.001,124.667 47.748,124.667 47.399 C 124.667 47.088,124.592 46.833,124.500 46.833 C 124.408 46.833,124.333 46.646,124.333 46.417 C 124.333 46.188,124.258 46.000,124.167 46.000 C 124.075 46.000,124.000 45.891,124.000 45.758 C 124.000 45.624,123.813 45.328,123.583 45.098 C 123.354 44.869,123.167 44.603,123.167 44.508 C 123.167 44.412,123.071 44.333,122.953 44.333 C 122.836 44.333,122.630 44.179,122.495 43.990 C 122.360 43.801,121.987 43.532,121.667 43.392 C 121.346 43.253,120.971 43.070,120.833 42.985 C 120.696 42.900,120.471 42.789,120.333 42.737 C 120.196 42.685,119.953 42.573,119.794 42.488 C 119.635 42.403,118.941 42.333,118.252 42.333 C 117.529 42.333,117.000 42.263,117.000 42.167 C 117.000 42.075,116.662 42.000,116.250 42.000 C 115.837 42.000,115.500 42.075,115.500 42.167 C 115.500 42.261,115.028 42.333,114.417 42.333 C 113.806 42.333,113.333 42.406,113.333 42.500 C 113.333 42.592,113.151 42.667,112.929 42.667 C 112.706 42.667,112.411 42.779,112.274 42.917 C 112.136 43.054,111.868 43.167,111.679 43.167 C 111.489 43.167,111.333 43.242,111.333 43.333 C 111.333 43.425,111.181 43.500,110.995 43.500 C 110.809 43.500,110.613 43.612,110.560 43.750 C 110.508 43.887,110.322 44.000,110.149 44.000 C 109.975 44.000,109.833 44.075,109.833 44.167 C 109.833 44.258,109.721 44.333,109.583 44.333 C 109.446 44.333,109.333 44.414,109.333 44.512 C 109.333 44.779,108.894 45.167,108.590 45.167 C 108.443 45.167,108.280 45.279,108.227 45.417 C 108.055 45.864,107.333 45.729,107.333 45.250 C 107.333 44.991,107.239 44.833,107.083 44.833 C 106.946 44.833,106.833 44.753,106.833 44.655 C 106.833 44.463,106.424 44.000,106.255 44.000 C 106.157 44.000,105.928 43.828,105.423 43.375 C 105.295 43.260,105.035 43.167,104.845 43.167 C 104.655 43.167,104.500 43.106,104.500 43.032 C 104.500 42.709,103.172 42.333,102.027 42.333 C 101.342 42.333,100.833 42.262,100.833 42.167 C 100.833 42.075,100.496 42.000,100.083 42.000 C 99.671 42.000,99.333 42.075,99.333 42.167 C 99.333 42.261,98.861 42.333,98.250 42.333 C 97.639 42.333,97.167 42.406,97.167 42.500 C 97.167 42.592,97.014 42.667,96.828 42.667 C 96.642 42.667,96.446 42.779,96.394 42.917 C 96.341 43.054,96.118 43.167,95.899 43.167 C 95.679 43.167,95.500 43.242,95.500 43.333 C 95.500 43.425,95.348 43.500,95.161 43.500 C 94.975 43.500,94.780 43.612,94.727 43.750 C 94.674 43.887,94.489 44.000,94.316 44.000 C 94.142 44.000,94.000 44.075,94.000 44.167 C 94.000 44.258,93.888 44.333,93.750 44.333 C 93.612 44.333,93.500 44.414,93.500 44.512 C 93.500 44.743,93.076 45.167,92.845 45.167 C 92.605 45.167,92.616 44.711,92.859 44.630 C 93.246 44.501,93.248 42.684,92.862 42.324 C 92.327 41.826,90.876 41.886,90.369 42.427 M143.083 42.167 C 143.027 42.258,142.389 42.333,141.667 42.333 C 140.944 42.333,140.312 42.400,140.262 42.481 C 140.211 42.562,139.907 42.678,139.585 42.739 C 139.263 42.799,139.000 42.920,139.000 43.008 C 139.000 43.095,138.813 43.167,138.583 43.167 C 138.354 43.167,138.167 43.242,138.167 43.333 C 138.167 43.425,138.014 43.500,137.828 43.500 C 137.642 43.500,137.446 43.612,137.394 43.750 C 137.341 43.887,137.174 44.002,137.024 44.005 C 136.678 44.012,136.167 44.393,136.167 44.643 C 136.167 44.748,136.092 44.833,136.000 44.833 C 135.732 44.833,133.667 46.987,133.667 47.268 C 133.667 47.562,133.275 48.000,133.012 48.000 C 132.914 48.000,132.833 48.188,132.833 48.417 C 132.833 48.646,132.758 48.833,132.667 48.833 C 132.575 48.833,132.500 49.021,132.500 49.250 C 132.500 49.509,132.406 49.667,132.250 49.667 C 132.094 49.667,132.000 49.824,132.000 50.083 C 132.000 50.313,131.925 50.500,131.833 50.500 C 131.742 50.500,131.667 50.805,131.667 51.179 C 131.667 51.560,131.557 51.967,131.417 52.107 C 131.247 52.277,131.167 52.697,131.167 53.419 C 131.167 54.003,131.092 54.527,131.000 54.583 C 130.908 54.640,130.833 55.352,130.833 56.167 C 130.833 56.981,130.908 57.693,131.000 57.750 C 131.092 57.807,131.167 58.368,131.167 58.998 C 131.167 59.793,131.243 60.219,131.417 60.393 C 131.554 60.530,131.667 60.911,131.667 61.238 C 131.667 61.565,131.742 61.833,131.833 61.833 C 131.925 61.833,132.000 61.986,132.000 62.172 C 132.000 62.358,132.112 62.554,132.250 62.606 C 132.387 62.659,132.500 62.844,132.500 63.018 C 132.500 63.191,132.575 63.333,132.667 63.333 C 132.758 63.333,132.833 63.521,132.833 63.750 C 132.833 64.009,132.928 64.167,133.083 64.167 C 133.222 64.167,133.333 64.315,133.333 64.500 C 133.333 64.683,133.408 64.833,133.500 64.833 C 133.592 64.833,133.667 64.918,133.667 65.022 C 133.667 65.126,133.929 65.458,134.250 65.761 C 134.571 66.063,134.833 66.391,134.833 66.489 C 134.833 66.587,134.914 66.667,135.012 66.667 C 135.243 66.667,135.667 67.091,135.667 67.321 C 135.667 67.420,135.779 67.500,135.917 67.500 C 136.054 67.500,136.167 67.575,136.167 67.667 C 136.167 67.758,136.276 67.833,136.409 67.833 C 136.542 67.833,136.839 68.021,137.068 68.250 C 137.297 68.479,137.638 68.667,137.826 68.667 C 138.013 68.667,138.167 68.742,138.167 68.833 C 138.167 68.925,138.346 69.000,138.566 69.000 C 138.785 69.000,139.008 69.112,139.060 69.250 C 139.124 69.415,139.385 69.500,139.828 69.500 C 140.198 69.500,140.500 69.575,140.500 69.667 C 140.500 69.765,141.111 69.833,142.000 69.833 C 142.889 69.833,143.500 69.901,143.500 70.000 C 143.500 70.092,143.650 70.167,143.833 70.167 C 144.017 70.167,144.167 70.092,144.167 70.000 C 144.167 69.902,144.750 69.833,145.583 69.833 C 146.417 69.833,147.000 69.765,147.000 69.667 C 147.000 69.575,147.265 69.500,147.589 69.500 C 147.958 69.500,148.213 69.407,148.273 69.250 C 148.326 69.112,148.496 69.000,148.651 69.000 C 149.010 69.000,149.830 68.623,149.832 68.458 C 149.833 68.390,149.986 68.333,150.172 68.333 C 150.358 68.333,150.554 68.221,150.606 68.083 C 150.659 67.946,150.789 67.833,150.895 67.833 C 151.001 67.833,151.228 67.646,151.400 67.417 C 151.573 67.188,151.821 67.000,151.952 67.000 C 152.232 67.000,152.667 66.602,152.667 66.345 C 152.667 66.247,152.748 66.167,152.846 66.167 C 153.134 66.167,154.333 64.794,154.333 64.466 C 154.333 64.301,154.446 64.167,154.583 64.167 C 154.782 64.167,154.833 63.926,154.833 63.000 C 154.833 62.074,154.782 61.833,154.583 61.833 C 154.446 61.833,154.333 61.721,154.333 61.583 C 154.333 61.130,153.396 61.284,152.839 61.828 C 152.561 62.100,152.333 62.367,152.333 62.423 C 152.333 62.591,151.869 63.000,151.679 63.000 C 151.580 63.000,151.500 63.075,151.500 63.167 C 151.500 63.258,151.399 63.333,151.276 63.333 C 151.153 63.333,150.834 63.521,150.568 63.750 C 150.301 63.979,149.952 64.166,149.792 64.166 C 149.631 64.167,149.500 64.279,149.500 64.417 C 149.500 64.591,149.324 64.667,148.917 64.667 C 148.596 64.667,148.333 64.742,148.333 64.833 C 148.333 64.925,148.079 65.000,147.768 65.000 C 147.419 65.000,147.166 65.096,147.106 65.250 C 147.031 65.445,146.699 65.500,145.589 65.500 C 144.436 65.500,144.167 65.453,144.167 65.250 C 144.167 65.069,143.981 65.000,143.500 65.000 C 143.133 65.000,142.833 64.925,142.833 64.833 C 142.833 64.742,142.683 64.667,142.500 64.667 C 142.317 64.667,142.167 64.597,142.167 64.511 C 142.167 64.426,141.998 64.303,141.792 64.237 C 141.585 64.172,141.295 63.980,141.147 63.809 C 140.999 63.639,140.793 63.500,140.689 63.500 C 140.585 63.500,140.500 63.437,140.500 63.361 C 140.500 63.285,140.194 62.891,139.821 62.487 C 139.447 62.082,139.099 61.538,139.047 61.278 C 138.995 61.018,138.851 60.766,138.726 60.718 C 138.598 60.669,138.500 60.390,138.500 60.075 C 138.500 59.770,138.425 59.473,138.333 59.417 C 138.242 59.360,138.167 58.807,138.167 58.189 C 138.167 57.458,138.081 56.950,137.922 56.740 C 137.605 56.321,137.603 55.873,137.917 55.560 C 138.083 55.394,138.167 54.978,138.167 54.321 L 138.167 53.333 146.380 53.333 C 155.913 53.333,155.167 53.482,155.167 51.581 C 155.167 50.972,155.094 50.500,155.000 50.500 C 154.908 50.500,154.833 50.205,154.833 49.845 C 154.833 49.485,154.721 49.078,154.583 48.940 C 154.446 48.803,154.333 48.535,154.333 48.345 C 154.333 48.155,154.258 48.000,154.167 48.000 C 154.075 48.000,154.000 47.848,154.000 47.661 C 154.000 47.475,153.887 47.280,153.750 47.227 C 153.612 47.174,153.500 47.033,153.500 46.913 C 153.500 46.793,153.237 46.425,152.917 46.095 C 152.596 45.764,152.333 45.420,152.333 45.330 C 152.333 45.240,152.266 45.167,152.184 45.167 C 152.102 45.167,151.858 44.980,151.642 44.753 C 151.427 44.525,151.137 44.338,150.998 44.336 C 150.859 44.335,150.605 44.146,150.433 43.917 C 150.261 43.688,149.980 43.500,149.810 43.500 C 149.639 43.500,149.500 43.425,149.500 43.333 C 149.500 43.242,149.345 43.167,149.155 43.167 C 148.965 43.167,148.697 43.054,148.560 42.917 C 148.422 42.779,148.132 42.667,147.915 42.667 C 147.697 42.667,147.473 42.592,147.417 42.500 C 147.360 42.408,146.718 42.333,145.990 42.333 C 145.219 42.333,144.667 42.264,144.667 42.167 C 144.667 42.075,144.334 42.000,143.927 42.000 C 143.519 42.000,143.140 42.075,143.083 42.167 M169.583 42.167 C 169.527 42.258,168.922 42.333,168.240 42.333 C 167.558 42.333,167.000 42.399,167.000 42.479 C 167.000 42.559,166.700 42.672,166.333 42.731 C 165.967 42.789,165.667 42.911,165.667 43.002 C 165.667 43.093,165.517 43.167,165.333 43.167 C 165.150 43.167,165.000 43.242,165.000 43.333 C 165.000 43.425,164.848 43.500,164.661 43.500 C 164.475 43.500,164.280 43.612,164.227 43.750 C 164.174 43.887,164.059 44.000,163.970 44.000 C 163.754 44.000,163.333 44.432,163.333 44.655 C 163.333 44.753,163.187 44.833,163.008 44.833 C 162.829 44.833,162.547 45.026,162.383 45.261 C 162.218 45.497,161.915 45.869,161.708 46.087 C 161.502 46.306,161.333 46.563,161.333 46.659 C 161.333 46.755,161.221 46.833,161.083 46.833 C 160.928 46.833,160.833 46.991,160.833 47.250 C 160.833 47.479,160.775 47.667,160.703 47.667 C 160.497 47.667,160.000 48.598,160.000 48.984 C 160.000 49.176,159.925 49.333,159.833 49.333 C 159.742 49.333,159.667 49.751,159.667 50.262 C 159.667 50.891,159.581 51.277,159.400 51.457 C 159.071 51.786,159.125 54.180,159.463 54.293 C 159.577 54.331,159.667 54.648,159.667 55.014 C 159.667 55.373,159.742 55.667,159.833 55.667 C 159.925 55.667,160.000 55.929,160.000 56.250 C 160.000 56.621,160.080 56.833,160.219 56.833 C 160.339 56.833,160.541 57.096,160.667 57.417 C 160.793 57.738,161.069 58.130,161.281 58.290 C 161.493 58.449,161.667 58.661,161.667 58.761 C 161.667 58.862,161.854 59.044,162.083 59.167 C 162.313 59.289,162.500 59.454,162.500 59.532 C 162.500 59.611,162.688 59.746,162.917 59.833 C 163.560 60.078,163.451 60.500,162.745 60.500 C 162.375 60.500,162.120 60.593,162.060 60.750 C 162.008 60.887,161.822 61.000,161.649 61.000 C 161.475 61.000,161.333 61.075,161.333 61.167 C 161.333 61.258,161.151 61.333,160.929 61.333 C 160.706 61.333,160.411 61.446,160.274 61.583 C 160.136 61.721,159.943 61.833,159.845 61.833 C 159.747 61.833,159.667 61.908,159.667 62.000 C 159.667 62.092,159.573 62.169,159.458 62.172 C 159.143 62.181,158.500 62.770,158.500 63.051 C 158.500 63.186,158.387 63.341,158.250 63.394 C 158.069 63.463,158.000 63.746,158.000 64.417 C 158.000 65.087,158.069 65.370,158.250 65.440 C 158.404 65.499,158.500 65.752,158.500 66.101 C 158.500 66.412,158.575 66.667,158.667 66.667 C 158.758 66.667,158.833 66.822,158.833 67.012 C 158.833 67.381,159.194 67.833,159.488 67.833 C 159.586 67.833,159.667 67.928,159.667 68.044 C 159.667 68.219,160.046 68.582,160.665 69.000 C 161.023 69.242,160.999 69.797,160.627 69.891 C 160.416 69.944,160.079 70.140,159.879 70.327 C 159.678 70.514,159.409 70.667,159.280 70.667 C 159.152 70.667,158.906 70.854,158.734 71.083 C 158.562 71.313,158.326 71.500,158.210 71.500 C 158.095 71.500,158.000 71.580,158.000 71.679 C 158.000 71.873,157.590 72.333,157.417 72.333 C 157.244 72.333,156.833 72.794,156.833 72.988 C 156.833 73.086,156.721 73.167,156.583 73.167 C 156.428 73.167,156.333 73.324,156.333 73.583 C 156.333 73.813,156.258 74.000,156.167 74.000 C 156.075 74.000,156.000 74.155,156.000 74.345 C 156.000 74.535,155.887 74.803,155.750 74.940 C 155.558 75.132,155.500 75.614,155.500 77.000 C 155.500 78.386,155.558 78.868,155.750 79.060 C 155.887 79.197,156.000 79.431,156.000 79.580 C 156.000 79.983,156.425 80.717,156.819 80.995 C 157.010 81.130,157.167 81.336,157.167 81.453 C 157.167 81.571,157.247 81.667,157.345 81.667 C 157.576 81.667,158.000 82.091,158.000 82.321 C 158.000 82.420,158.112 82.500,158.250 82.500 C 158.387 82.500,158.500 82.563,158.500 82.640 C 158.500 82.718,158.762 82.922,159.083 83.095 C 159.404 83.268,159.667 83.467,159.667 83.538 C 159.667 83.609,159.854 83.667,160.083 83.667 C 160.313 83.667,160.500 83.742,160.500 83.833 C 160.500 83.925,160.762 84.000,161.083 84.000 C 161.491 84.000,161.667 84.075,161.667 84.250 C 161.667 84.424,161.841 84.500,162.240 84.500 C 162.556 84.500,162.860 84.575,162.917 84.667 C 162.974 84.759,163.726 84.833,164.599 84.833 C 165.741 84.833,166.287 84.904,166.570 85.090 C 166.924 85.322,166.988 85.322,167.219 85.090 C 167.423 84.886,167.906 84.833,169.571 84.833 C 170.857 84.833,171.667 84.769,171.667 84.667 C 171.667 84.575,172.044 84.500,172.505 84.500 C 173.097 84.500,173.372 84.426,173.440 84.250 C 173.499 84.096,173.752 84.000,174.101 84.000 C 174.412 84.000,174.667 83.925,174.667 83.833 C 174.667 83.742,174.929 83.667,175.250 83.667 C 175.571 83.667,175.833 83.592,175.833 83.500 C 175.833 83.408,176.015 83.333,176.238 83.333 C 176.461 83.333,176.755 83.221,176.893 83.083 C 177.030 82.946,177.223 82.833,177.321 82.833 C 177.420 82.833,177.500 82.758,177.500 82.667 C 177.500 82.575,177.652 82.500,177.839 82.500 C 178.025 82.500,178.220 82.387,178.273 82.250 C 178.326 82.112,178.492 81.998,178.643 81.995 C 178.988 81.988,179.500 81.607,179.500 81.357 C 179.500 81.252,179.671 81.167,179.880 81.167 C 180.089 81.167,180.368 81.017,180.500 80.833 C 180.632 80.650,180.836 80.500,180.953 80.500 C 181.071 80.500,181.167 80.420,181.167 80.321 C 181.167 80.091,181.591 79.667,181.821 79.667 C 181.920 79.667,182.000 79.587,182.000 79.489 C 182.000 79.391,182.262 79.063,182.583 78.761 C 182.904 78.458,183.167 78.088,183.167 77.939 C 183.167 77.789,183.233 77.667,183.314 77.667 C 183.395 77.667,183.505 77.535,183.559 77.375 C 183.613 77.215,183.723 76.971,183.803 76.833 C 184.223 76.111,184.333 75.787,184.333 75.270 C 184.333 74.919,184.429 74.666,184.583 74.606 C 184.781 74.530,184.833 74.180,184.833 72.917 C 184.833 71.654,184.781 71.303,184.583 71.227 C 184.420 71.164,184.333 70.905,184.333 70.482 C 184.333 70.125,184.258 69.833,184.167 69.833 C 184.075 69.833,184.000 69.691,184.000 69.518 C 184.000 69.344,183.887 69.159,183.750 69.106 C 183.612 69.054,183.500 68.889,183.500 68.740 C 183.500 68.460,182.877 67.849,182.581 67.839 C 182.488 67.836,182.272 67.646,182.100 67.417 C 181.927 67.188,181.647 67.000,181.477 67.000 C 181.306 67.000,181.167 66.925,181.167 66.833 C 181.167 66.742,181.011 66.667,180.821 66.667 C 180.632 66.667,180.364 66.554,180.226 66.417 C 180.089 66.279,179.798 66.167,179.581 66.167 C 179.364 66.167,179.140 66.092,179.083 66.000 C 179.027 65.908,178.460 65.833,177.823 65.833 C 177.163 65.833,176.667 65.762,176.667 65.667 C 176.667 65.559,174.861 65.500,171.583 65.500 C 167.176 65.500,166.500 65.467,166.500 65.250 C 166.500 65.096,166.344 65.000,166.093 65.000 C 165.869 65.000,165.640 64.925,165.583 64.833 C 165.527 64.742,165.335 64.667,165.157 64.667 C 164.979 64.667,164.833 64.554,164.833 64.417 C 164.833 64.279,164.758 64.167,164.667 64.167 C 164.426 64.167,164.462 63.511,164.715 63.280 C 165.115 62.914,165.661 62.667,166.069 62.667 C 166.293 62.667,166.589 62.554,166.726 62.417 C 166.926 62.217,167.468 62.167,169.405 62.167 C 170.913 62.167,171.833 62.103,171.833 62.000 C 171.833 61.907,172.278 61.833,172.833 61.833 C 173.611 61.833,173.833 61.778,173.833 61.583 C 173.833 61.409,174.009 61.333,174.417 61.333 C 174.737 61.333,175.000 61.258,175.000 61.167 C 175.000 61.075,175.188 61.000,175.417 61.000 C 175.676 61.000,175.833 60.906,175.833 60.750 C 175.833 60.606,175.984 60.500,176.189 60.500 C 176.384 60.500,176.666 60.361,176.814 60.191 C 176.962 60.020,177.252 59.828,177.458 59.763 C 177.665 59.697,177.833 59.574,177.833 59.489 C 177.833 59.403,177.914 59.333,178.012 59.333 C 178.209 59.333,178.667 58.922,178.667 58.744 C 178.667 58.682,178.854 58.484,179.083 58.304 C 179.313 58.123,179.500 57.831,179.500 57.655 C 179.500 57.478,179.573 57.333,179.662 57.333 C 179.879 57.333,180.333 56.437,180.333 56.008 C 180.333 55.820,180.408 55.667,180.500 55.667 C 180.592 55.667,180.667 55.488,180.667 55.270 C 180.667 55.052,180.779 54.781,180.917 54.667 C 181.119 54.499,181.167 53.971,181.167 51.891 C 181.167 49.762,181.124 49.306,180.917 49.227 C 180.779 49.174,180.667 49.064,180.667 48.982 C 180.667 48.777,182.956 48.794,183.083 49.000 C 183.377 49.475,184.830 48.955,184.832 48.375 C 184.833 48.169,184.908 48.000,185.000 48.000 C 185.095 48.000,185.167 47.500,185.167 46.833 C 185.167 46.192,185.100 45.667,185.018 45.667 C 184.936 45.667,184.822 45.479,184.765 45.250 L 184.660 44.833 182.197 44.833 C 180.601 44.833,179.668 44.899,179.547 45.020 C 179.316 45.251,178.333 44.864,178.333 44.543 C 178.333 44.428,178.221 44.333,178.083 44.333 C 177.946 44.333,177.833 44.258,177.833 44.167 C 177.833 44.075,177.646 44.000,177.417 44.000 C 177.157 44.000,177.000 43.906,177.000 43.750 C 177.000 43.612,176.854 43.500,176.677 43.500 C 176.499 43.500,176.307 43.425,176.250 43.333 C 176.193 43.242,176.008 43.167,175.837 43.167 C 175.667 43.167,175.500 43.084,175.467 42.984 C 175.433 42.883,175.052 42.761,174.620 42.712 C 174.187 42.663,173.833 42.558,173.833 42.478 C 173.833 42.399,173.275 42.333,172.593 42.333 C 171.911 42.333,171.307 42.258,171.250 42.167 C 171.193 42.075,170.818 42.000,170.417 42.000 C 170.015 42.000,169.640 42.075,169.583 42.167 M198.167 42.167 C 198.167 42.263,197.642 42.333,196.927 42.333 C 196.244 42.333,195.646 42.398,195.597 42.478 C 195.548 42.558,195.206 42.671,194.837 42.730 C 194.468 42.789,194.167 42.911,194.167 43.002 C 194.167 43.093,193.979 43.167,193.750 43.167 C 193.521 43.167,193.333 43.242,193.333 43.333 C 193.333 43.425,193.146 43.500,192.917 43.500 C 192.657 43.500,192.500 43.594,192.500 43.750 C 192.500 43.906,192.343 44.000,192.083 44.000 C 191.854 44.000,191.667 44.075,191.667 44.167 C 191.667 44.258,191.479 44.333,191.250 44.333 C 190.991 44.333,190.833 44.428,190.833 44.583 C 190.833 44.722,190.685 44.833,190.500 44.833 C 190.317 44.833,190.167 44.908,190.167 45.000 C 190.167 45.092,190.084 45.167,189.982 45.167 C 189.881 45.167,189.650 45.354,189.470 45.583 C 189.290 45.813,189.030 46.000,188.892 46.000 C 188.605 46.000,187.667 46.884,187.667 47.154 C 187.667 47.253,187.610 47.334,187.542 47.334 C 186.826 47.340,186.541 50.621,187.178 51.516 C 187.424 51.862,187.662 52.000,188.011 52.000 C 188.335 52.000,188.500 52.085,188.500 52.250 C 188.500 52.435,188.693 52.500,189.238 52.500 C 189.672 52.500,190.079 52.397,190.226 52.250 C 190.364 52.112,190.744 52.000,191.071 52.000 C 191.399 52.000,191.667 51.938,191.667 51.861 C 191.667 51.785,191.835 51.632,192.042 51.522 C 192.406 51.326,192.833 50.633,192.833 50.237 C 192.833 50.129,192.946 49.947,193.083 49.833 C 193.254 49.692,193.333 49.314,193.333 48.646 C 193.333 48.104,193.408 47.667,193.500 47.667 C 193.592 47.667,193.667 47.479,193.667 47.250 C 193.667 46.991,193.761 46.833,193.917 46.833 C 194.054 46.833,194.167 46.721,194.167 46.583 C 194.167 46.444,194.315 46.333,194.500 46.333 C 194.683 46.333,194.833 46.258,194.833 46.167 C 194.833 46.075,195.021 46.000,195.250 46.000 C 195.509 46.000,195.667 45.906,195.667 45.750 C 195.667 45.550,195.917 45.500,196.917 45.500 C 197.917 45.500,198.167 45.550,198.167 45.750 C 198.167 45.887,198.252 46.000,198.356 46.000 C 198.555 46.000,199.333 46.829,199.333 47.042 C 199.333 47.110,199.446 47.167,199.583 47.167 C 199.739 47.167,199.833 47.324,199.833 47.583 C 199.833 47.813,199.908 48.000,200.000 48.000 C 200.105 48.000,200.167 49.056,200.167 50.833 C 200.167 53.267,200.131 53.667,199.911 53.667 C 199.771 53.667,199.613 53.779,199.560 53.917 C 199.498 54.080,199.238 54.167,198.816 54.167 C 198.459 54.167,198.167 54.234,198.167 54.316 C 198.167 54.398,197.885 54.506,197.542 54.556 C 196.263 54.743,195.805 54.881,195.719 55.104 C 195.668 55.236,195.392 55.333,195.066 55.333 C 194.754 55.333,194.500 55.408,194.500 55.500 C 194.500 55.592,194.273 55.667,193.995 55.667 C 193.699 55.667,193.450 55.771,193.394 55.917 C 193.341 56.054,193.118 56.167,192.899 56.167 C 192.679 56.167,192.500 56.242,192.500 56.333 C 192.500 56.425,192.313 56.500,192.083 56.500 C 191.824 56.500,191.667 56.594,191.667 56.750 C 191.667 56.906,191.509 57.000,191.250 57.000 C 191.021 57.000,190.833 57.075,190.833 57.167 C 190.833 57.258,190.683 57.333,190.500 57.333 C 190.317 57.333,190.167 57.408,190.167 57.500 C 190.167 57.592,190.054 57.667,189.917 57.667 C 189.779 57.667,189.667 57.779,189.667 57.917 C 189.667 58.054,189.535 58.169,189.375 58.172 C 189.015 58.179,188.500 58.554,188.500 58.810 C 188.500 58.915,188.420 59.000,188.321 59.000 C 188.091 59.000,187.667 59.424,187.667 59.655 C 187.667 59.753,187.586 59.833,187.488 59.833 C 187.200 59.833,186.833 60.283,186.833 60.637 C 186.833 60.817,186.721 61.008,186.583 61.060 C 186.446 61.113,186.333 61.309,186.333 61.495 C 186.333 61.681,186.258 61.833,186.167 61.833 C 186.064 61.833,186.000 62.667,186.000 64.000 C 186.000 65.333,186.064 66.167,186.167 66.167 C 186.258 66.167,186.333 66.319,186.333 66.505 C 186.333 66.691,186.446 66.887,186.583 66.940 C 186.721 66.992,186.833 67.184,186.833 67.364 C 186.833 67.794,188.057 69.000,188.493 69.000 C 188.684 69.000,188.833 69.110,188.833 69.250 C 188.833 69.406,188.991 69.500,189.250 69.500 C 189.479 69.500,189.667 69.575,189.667 69.667 C 189.667 69.761,190.136 69.833,190.740 69.833 C 191.331 69.833,191.860 69.908,191.917 70.000 C 191.973 70.092,192.203 70.167,192.427 70.167 C 192.650 70.167,192.833 70.092,192.833 70.000 C 192.833 69.901,193.472 69.833,194.417 69.833 C 195.361 69.833,196.000 69.766,196.000 69.667 C 196.000 69.575,196.300 69.500,196.667 69.500 C 197.148 69.500,197.333 69.431,197.333 69.250 C 197.333 69.094,197.491 69.000,197.750 69.000 C 197.979 69.000,198.167 68.925,198.167 68.833 C 198.167 68.742,198.320 68.667,198.507 68.667 C 198.695 68.667,199.050 68.479,199.297 68.250 C 199.544 68.021,199.841 67.833,199.957 67.833 C 200.072 67.833,200.167 67.758,200.167 67.667 C 200.167 67.575,200.279 67.500,200.417 67.500 C 200.558 67.500,200.667 67.649,200.667 67.845 C 200.667 68.214,201.027 68.667,201.321 68.667 C 201.420 68.667,201.500 68.742,201.500 68.833 C 201.500 68.925,201.642 69.000,201.816 69.000 C 201.989 69.000,202.174 69.112,202.227 69.250 C 202.282 69.395,202.532 69.500,202.818 69.500 C 203.091 69.500,203.360 69.575,203.417 69.667 C 203.474 69.759,204.224 69.833,205.093 69.833 C 206.031 69.833,206.667 69.766,206.667 69.667 C 206.667 69.575,206.929 69.500,207.250 69.500 C 207.657 69.500,207.833 69.425,207.833 69.250 C 207.833 69.094,207.991 69.000,208.250 69.000 C 208.479 69.000,208.667 68.925,208.667 68.833 C 208.667 68.742,208.822 68.667,209.011 68.667 C 210.267 68.667,211.761 65.737,210.929 64.905 C 210.669 64.645,209.167 64.569,209.167 64.815 C 209.167 64.897,208.979 65.011,208.750 65.068 C 208.521 65.126,208.333 65.247,208.333 65.337 C 208.333 65.426,208.188 65.500,208.010 65.500 C 207.832 65.500,207.644 65.568,207.593 65.651 C 207.467 65.855,206.670 65.473,206.668 65.208 C 206.667 65.094,206.592 65.000,206.500 65.000 C 206.258 65.000,206.273 50.424,206.515 49.971 C 206.647 49.725,206.647 49.580,206.515 49.449 C 206.415 49.349,206.333 48.725,206.333 48.062 C 206.333 47.213,206.259 46.783,206.083 46.607 C 205.946 46.470,205.833 46.202,205.833 46.012 C 205.833 45.822,205.758 45.667,205.667 45.667 C 205.575 45.667,205.500 45.479,205.500 45.250 C 205.500 44.991,205.406 44.833,205.250 44.833 C 205.112 44.833,205.000 44.752,205.000 44.654 C 205.000 44.366,203.628 43.167,203.299 43.167 C 203.135 43.167,203.000 43.106,203.000 43.032 C 203.000 42.750,201.682 42.333,200.787 42.333 C 200.273 42.333,199.807 42.258,199.750 42.167 C 199.693 42.075,199.314 42.000,198.907 42.000 C 198.500 42.000,198.167 42.075,198.167 42.167 M218.500 42.167 C 218.500 42.258,218.422 42.333,218.326 42.333 C 218.231 42.333,218.041 42.427,217.904 42.542 C 217.399 42.965,217.229 43.088,216.871 43.292 C 216.669 43.406,216.399 43.500,216.270 43.500 C 216.141 43.500,215.992 43.612,215.940 43.750 C 215.884 43.896,215.634 44.000,215.339 44.000 C 215.061 44.000,214.833 44.075,214.833 44.167 C 214.833 44.258,214.654 44.333,214.434 44.333 C 214.215 44.333,213.992 44.446,213.940 44.583 C 213.877 44.747,213.616 44.833,213.182 44.833 C 212.818 44.833,212.473 44.908,212.417 45.000 C 212.360 45.092,212.083 45.167,211.800 45.167 C 211.102 45.167,210.845 45.571,210.839 46.675 C 210.832 47.805,211.008 48.000,212.033 48.000 C 212.473 48.000,212.833 48.075,212.833 48.167 C 212.833 48.258,213.021 48.333,213.250 48.333 C 213.509 48.333,213.667 48.428,213.667 48.583 C 213.667 48.721,213.742 48.833,213.833 48.833 C 213.925 48.833,214.000 49.129,214.000 49.490 C 214.000 49.851,214.075 50.193,214.167 50.250 C 214.276 50.317,214.333 55.224,214.333 64.427 C 214.333 73.698,214.276 78.500,214.167 78.500 C 214.075 78.500,214.000 78.837,214.000 79.250 C 214.000 79.662,213.925 80.000,213.833 80.000 C 213.742 80.000,213.667 80.100,213.667 80.222 C 213.667 80.344,213.479 80.544,213.250 80.667 C 213.021 80.789,212.833 80.952,212.833 81.028 C 212.833 81.104,212.618 81.167,212.354 81.167 C 212.090 81.167,211.781 81.279,211.667 81.417 C 211.540 81.569,211.175 81.667,210.730 81.667 L 210.000 81.667 210.000 82.833 C 210.000 83.500,210.071 84.000,210.167 84.000 C 210.258 84.000,210.333 84.112,210.333 84.250 C 210.333 84.448,210.572 84.500,211.482 84.500 C 212.350 84.500,212.655 84.439,212.727 84.250 C 212.809 84.036,213.496 84.000,217.495 84.000 C 221.536 84.000,222.167 84.034,222.167 84.250 C 222.167 84.448,222.407 84.500,223.333 84.500 C 224.259 84.500,224.500 84.448,224.500 84.250 C 224.500 84.112,224.612 84.000,224.750 84.000 C 224.941 84.000,225.000 83.789,225.000 83.097 C 225.000 81.789,224.920 81.667,224.066 81.667 C 223.663 81.667,223.333 81.595,223.333 81.508 C 223.333 81.420,223.070 81.299,222.748 81.239 C 222.426 81.178,222.122 81.062,222.072 80.981 C 222.021 80.900,221.835 80.833,221.657 80.833 C 221.479 80.833,221.333 80.730,221.333 80.604 C 221.333 80.477,221.221 80.281,221.083 80.167 C 220.946 80.053,220.833 79.748,220.833 79.489 C 220.833 79.231,220.758 78.973,220.667 78.917 C 220.562 78.852,220.500 76.998,220.500 73.907 C 220.500 70.747,220.559 69.000,220.667 69.000 C 220.758 69.000,220.833 69.112,220.833 69.250 C 220.833 69.431,221.019 69.500,221.500 69.500 C 221.867 69.500,222.167 69.575,222.167 69.667 C 222.167 69.767,222.833 69.833,223.833 69.833 C 224.833 69.833,225.500 69.900,225.500 70.000 C 225.500 70.092,225.683 70.167,225.907 70.167 C 226.131 70.167,226.360 70.092,226.417 70.000 C 226.474 69.907,227.252 69.833,228.177 69.833 C 229.170 69.833,229.833 69.767,229.833 69.667 C 229.833 69.575,230.173 69.500,230.589 69.500 C 231.106 69.500,231.374 69.421,231.440 69.250 C 231.492 69.112,231.700 69.000,231.902 69.000 C 232.295 69.000,234.047 68.192,234.139 67.968 C 234.169 67.894,234.273 67.833,234.370 67.833 C 234.466 67.833,234.719 67.646,234.931 67.417 C 235.144 67.188,235.386 67.000,235.469 67.000 C 235.685 67.000,237.167 65.594,237.167 65.389 C 237.167 65.295,237.429 64.948,237.750 64.617 C 238.071 64.287,238.333 63.863,238.333 63.675 C 238.333 63.487,238.408 63.333,238.500 63.333 C 238.592 63.333,238.667 63.191,238.667 63.018 C 238.667 62.844,238.779 62.659,238.917 62.606 C 239.054 62.554,239.167 62.358,239.167 62.172 C 239.167 61.986,239.242 61.833,239.333 61.833 C 239.425 61.833,239.500 61.533,239.500 61.167 C 239.500 60.685,239.569 60.500,239.750 60.500 C 239.944 60.500,240.000 60.279,240.000 59.510 C 240.000 58.965,240.075 58.473,240.167 58.417 C 240.264 58.356,240.333 57.387,240.333 56.073 C 240.333 54.691,240.270 53.833,240.167 53.833 C 240.073 53.833,240.000 53.367,240.000 52.768 C 240.000 51.974,239.936 51.678,239.750 51.606 C 239.579 51.541,239.500 51.273,239.500 50.755 C 239.500 50.340,239.425 50.000,239.333 50.000 C 239.242 50.000,239.167 49.813,239.167 49.583 C 239.167 49.324,239.072 49.167,238.917 49.167 C 238.750 49.167,238.667 49.000,238.667 48.667 C 238.667 48.392,238.592 48.167,238.500 48.167 C 238.408 48.167,238.333 48.054,238.333 47.917 C 238.333 47.779,238.266 47.667,238.185 47.667 C 238.103 47.667,237.989 47.479,237.932 47.250 C 237.874 47.021,237.753 46.833,237.663 46.833 C 237.574 46.833,237.500 46.753,237.500 46.655 C 237.500 46.438,237.081 46.000,236.873 46.000 C 236.791 46.000,236.623 45.813,236.500 45.583 C 236.377 45.354,236.209 45.167,236.127 45.167 C 235.919 45.167,235.500 44.729,235.500 44.512 C 235.500 44.414,235.387 44.333,235.250 44.333 C 235.112 44.333,235.000 44.258,235.000 44.167 C 235.000 44.075,234.858 44.000,234.684 44.000 C 234.511 44.000,234.326 43.887,234.273 43.750 C 234.220 43.612,234.025 43.500,233.839 43.500 C 233.652 43.500,233.500 43.425,233.500 43.333 C 233.500 43.242,233.313 43.167,233.083 43.167 C 232.854 43.167,232.667 43.095,232.667 43.008 C 232.667 42.920,232.385 42.803,232.042 42.748 C 231.698 42.693,231.286 42.578,231.127 42.491 C 230.968 42.404,230.237 42.333,229.502 42.333 C 228.723 42.333,228.167 42.264,228.167 42.167 C 228.167 42.075,227.829 42.000,227.417 42.000 C 227.004 42.000,226.667 42.075,226.667 42.167 C 226.667 42.258,226.292 42.333,225.833 42.333 C 225.375 42.333,225.000 42.400,225.000 42.481 C 225.000 42.563,224.737 42.679,224.417 42.739 C 224.096 42.799,223.833 42.920,223.833 43.008 C 223.833 43.095,223.646 43.167,223.417 43.167 C 223.188 43.167,223.000 43.242,223.000 43.333 C 223.000 43.425,222.887 43.500,222.750 43.500 C 222.612 43.500,222.500 43.612,222.500 43.750 C 222.500 43.892,222.351 44.000,222.155 44.000 C 221.786 44.000,221.333 44.361,221.333 44.655 C 221.333 44.753,221.221 44.833,221.083 44.833 C 220.946 44.833,220.833 44.908,220.833 45.000 C 220.833 45.092,220.758 45.167,220.667 45.167 C 220.575 45.167,220.500 45.021,220.500 44.843 C 220.500 44.665,220.575 44.473,220.667 44.417 C 220.928 44.255,220.871 42.514,220.595 42.238 C 220.321 41.964,218.500 41.902,218.500 42.167 M289.500 42.167 C 289.500 42.266,288.864 42.333,287.927 42.333 C 287.057 42.333,286.307 42.408,286.250 42.500 C 286.193 42.592,285.969 42.667,285.752 42.667 C 285.535 42.667,285.245 42.779,285.107 42.917 C 284.970 43.054,284.627 43.167,284.345 43.167 C 284.064 43.167,283.833 43.234,283.833 43.315 C 283.833 43.397,283.646 43.511,283.417 43.568 C 283.188 43.626,283.000 43.747,283.000 43.837 C 283.000 43.926,282.864 44.000,282.697 44.000 C 282.531 44.000,281.999 44.375,281.516 44.833 C 281.033 45.292,280.559 45.667,280.464 45.667 C 280.268 45.667,279.667 46.310,279.667 46.519 C 279.667 46.593,279.329 47.001,278.917 47.426 C 278.504 47.850,278.167 48.332,278.167 48.497 C 278.167 48.663,278.054 48.841,277.917 48.894 C 277.779 48.946,277.667 49.142,277.667 49.328 C 277.667 49.514,277.592 49.667,277.500 49.667 C 277.408 49.667,277.333 49.822,277.333 50.012 C 277.333 50.202,277.221 50.470,277.083 50.607 C 276.946 50.745,276.833 51.110,276.833 51.419 C 276.833 51.728,276.758 52.027,276.667 52.083 C 276.575 52.140,276.500 52.738,276.500 53.413 C 276.500 54.237,276.433 54.661,276.294 54.707 C 275.951 54.822,275.894 57.470,276.232 57.600 C 276.449 57.683,276.500 57.971,276.500 59.101 C 276.500 59.923,276.569 60.500,276.667 60.500 C 276.758 60.500,276.833 60.765,276.833 61.089 C 276.833 61.458,276.926 61.713,277.083 61.773 C 277.221 61.826,277.333 62.048,277.333 62.268 C 277.333 62.487,277.408 62.667,277.500 62.667 C 277.592 62.667,277.667 62.817,277.667 63.000 C 277.667 63.185,277.778 63.333,277.917 63.333 C 278.072 63.333,278.167 63.491,278.167 63.750 C 278.167 63.979,278.242 64.167,278.333 64.167 C 278.425 64.167,278.500 64.245,278.500 64.340 C 278.500 64.504,278.630 64.692,279.125 65.244 C 279.240 65.372,279.333 65.524,279.333 65.583 C 279.333 65.756,279.794 66.167,279.988 66.167 C 280.086 66.167,280.167 66.247,280.167 66.345 C 280.167 66.596,280.599 67.000,280.868 67.000 C 280.991 67.000,281.209 67.131,281.352 67.292 C 281.773 67.765,282.556 68.333,282.786 68.333 C 282.904 68.333,283.000 68.408,283.000 68.500 C 283.000 68.592,283.188 68.667,283.417 68.667 C 283.646 68.667,283.833 68.742,283.833 68.833 C 283.833 68.925,284.096 69.000,284.417 69.000 C 284.824 69.000,285.000 69.075,285.000 69.250 C 285.000 69.431,285.185 69.500,285.667 69.500 C 286.033 69.500,286.333 69.575,286.333 69.667 C 286.333 69.767,287.010 69.833,288.029 69.833 C 289.325 69.833,289.791 69.894,290.009 70.091 C 290.266 70.324,290.319 70.324,290.552 70.091 C 290.752 69.891,291.204 69.833,292.571 69.833 C 293.635 69.833,294.333 69.767,294.333 69.667 C 294.333 69.575,294.590 69.500,294.905 69.500 C 295.219 69.500,295.589 69.387,295.726 69.250 C 295.864 69.112,296.127 69.000,296.312 69.000 C 296.496 69.000,296.693 68.925,296.750 68.833 C 296.807 68.742,296.999 68.667,297.177 68.667 C 297.354 68.667,297.500 68.592,297.500 68.500 C 297.500 68.408,297.652 68.333,297.839 68.333 C 298.025 68.333,298.220 68.221,298.273 68.083 C 298.326 67.946,298.473 67.833,298.601 67.833 C 298.729 67.833,298.833 67.758,298.833 67.667 C 298.833 67.575,298.948 67.500,299.089 67.500 C 299.229 67.500,299.387 67.387,299.440 67.250 C 299.492 67.112,299.608 67.000,299.696 67.000 C 299.913 67.000,300.333 66.568,300.333 66.345 C 300.333 66.247,300.414 66.167,300.513 66.167 C 300.800 66.167,302.000 64.794,302.000 64.466 C 302.000 64.301,302.112 64.167,302.250 64.167 C 302.387 64.167,302.502 64.035,302.504 63.875 C 302.506 63.715,302.654 63.396,302.833 63.167 C 303.013 62.938,303.161 62.651,303.163 62.530 C 303.165 62.409,303.279 62.197,303.417 62.060 C 303.554 61.922,303.667 61.515,303.667 61.155 C 303.667 60.795,303.742 60.500,303.833 60.500 C 303.926 60.500,304.000 60.062,304.000 59.520 C 304.000 58.853,304.080 58.475,304.250 58.333 C 304.445 58.171,304.500 57.711,304.500 56.224 C 304.500 54.688,304.452 54.304,304.250 54.227 C 304.064 54.156,304.000 53.859,304.000 53.066 C 304.000 52.466,303.927 52.000,303.833 52.000 C 303.742 52.000,303.667 51.663,303.667 51.250 C 303.667 50.694,303.602 50.500,303.417 50.500 C 303.261 50.500,303.167 50.343,303.167 50.083 C 303.167 49.854,303.092 49.667,303.000 49.667 C 302.908 49.667,302.833 49.479,302.833 49.250 C 302.833 49.021,302.758 48.833,302.667 48.833 C 302.575 48.833,302.500 48.694,302.500 48.523 C 302.500 48.353,302.313 48.073,302.083 47.900 C 301.854 47.728,301.667 47.493,301.667 47.377 C 301.667 47.261,301.554 47.167,301.417 47.167 C 301.278 47.167,301.167 47.019,301.167 46.833 C 301.167 46.650,301.092 46.500,301.000 46.500 C 300.908 46.500,300.833 46.387,300.833 46.250 C 300.833 46.112,300.739 46.000,300.623 46.000 C 300.507 46.000,300.272 45.813,300.100 45.583 C 299.927 45.354,299.679 45.167,299.548 45.167 C 299.268 45.167,298.833 44.768,298.833 44.512 C 298.833 44.414,298.721 44.333,298.583 44.333 C 298.446 44.333,298.333 44.258,298.333 44.167 C 298.333 44.075,298.146 44.000,297.917 44.000 C 297.657 44.000,297.500 43.906,297.500 43.750 C 297.500 43.612,297.354 43.500,297.177 43.500 C 296.999 43.500,296.807 43.425,296.750 43.333 C 296.693 43.242,296.483 43.164,296.282 43.161 C 296.081 43.158,295.771 43.046,295.593 42.911 C 295.415 42.777,295.059 42.667,294.801 42.667 C 294.544 42.667,294.333 42.592,294.333 42.500 C 294.333 42.400,293.667 42.333,292.667 42.333 C 291.667 42.333,291.000 42.267,291.000 42.167 C 291.000 42.075,290.662 42.000,290.250 42.000 C 289.837 42.000,289.500 42.075,289.500 42.167 M315.500 42.167 C 315.500 42.258,315.387 42.333,315.250 42.333 C 315.112 42.333,315.000 42.407,315.000 42.497 C 315.000 42.587,314.813 42.707,314.583 42.765 C 314.354 42.822,314.167 42.936,314.167 43.018 C 314.167 43.100,314.017 43.167,313.833 43.167 C 313.650 43.167,313.500 43.234,313.500 43.315 C 313.500 43.397,313.313 43.511,313.083 43.568 C 312.854 43.626,312.667 43.747,312.667 43.837 C 312.667 43.926,312.479 44.000,312.250 44.000 C 312.021 44.000,311.833 44.075,311.833 44.167 C 311.833 44.258,311.606 44.333,311.328 44.333 C 311.033 44.333,310.783 44.437,310.727 44.583 C 310.664 44.746,310.405 44.833,309.982 44.833 C 309.625 44.833,309.333 44.908,309.333 45.000 C 309.333 45.092,309.103 45.167,308.821 45.167 C 308.124 45.167,307.333 45.957,307.333 46.654 C 307.333 46.936,307.391 47.167,307.460 47.167 C 307.530 47.167,307.662 47.335,307.752 47.542 C 307.888 47.851,308.070 47.926,308.792 47.967 C 309.273 47.995,309.667 48.089,309.667 48.175 C 309.667 48.262,309.846 48.333,310.065 48.333 C 310.351 48.333,310.493 48.451,310.568 48.750 C 310.626 48.979,310.747 49.167,310.837 49.167 C 310.926 49.167,311.000 49.462,311.000 49.823 C 311.000 50.185,311.075 50.527,311.167 50.583 C 311.273 50.649,311.333 52.918,311.333 56.843 C 311.333 60.837,311.275 63.000,311.167 63.000 C 311.074 63.000,311.000 63.444,311.000 64.000 C 311.000 64.778,310.944 65.000,310.750 65.000 C 310.612 65.000,310.500 65.080,310.500 65.179 C 310.500 65.567,309.742 65.996,308.625 66.240 C 308.373 66.295,308.167 66.413,308.167 66.503 C 308.167 66.593,307.867 66.667,307.500 66.667 L 306.833 66.667 306.833 67.833 L 306.833 69.000 314.008 69.000 L 321.182 69.000 321.133 67.875 L 321.083 66.750 320.517 66.696 C 320.206 66.666,319.845 66.535,319.714 66.404 C 319.583 66.274,319.294 66.167,319.071 66.167 C 318.849 66.167,318.667 66.104,318.667 66.028 C 318.667 65.952,318.479 65.789,318.250 65.667 C 317.934 65.497,317.833 65.310,317.833 64.889 C 317.833 64.583,317.758 64.333,317.667 64.333 C 317.558 64.333,317.500 61.718,317.500 56.821 C 317.500 49.059,317.519 48.833,318.155 48.833 C 318.253 48.833,318.333 48.753,318.333 48.655 C 318.333 48.385,318.774 48.000,319.083 48.000 C 319.393 48.000,319.833 47.615,319.833 47.345 C 319.833 47.247,320.096 47.167,320.417 47.167 C 320.737 47.167,321.000 47.092,321.000 47.000 C 321.000 46.900,321.663 46.833,322.657 46.833 C 323.582 46.833,324.359 46.907,324.417 47.000 C 324.473 47.092,324.665 47.167,324.843 47.167 C 325.021 47.167,325.167 47.237,325.167 47.322 C 325.167 47.408,325.332 47.530,325.534 47.594 C 326.011 47.745,326.333 48.075,326.333 48.410 C 326.333 48.557,326.446 48.720,326.583 48.773 C 326.721 48.826,326.833 49.048,326.833 49.268 C 326.833 49.487,326.908 49.667,327.000 49.667 C 327.092 49.667,327.167 50.082,327.167 50.589 C 327.167 51.254,327.236 51.537,327.417 51.606 C 327.632 51.689,327.667 52.491,327.667 57.414 C 327.667 62.288,327.630 63.156,327.417 63.333 C 327.265 63.459,327.167 63.824,327.167 64.261 C 327.167 64.656,327.092 65.027,327.000 65.083 C 326.908 65.140,326.833 65.332,326.833 65.510 C 326.833 65.688,326.746 65.833,326.639 65.833 C 326.328 65.833,325.167 66.385,325.167 66.532 C 325.167 66.606,324.904 66.667,324.583 66.667 C 324.108 66.667,324.000 66.729,324.000 67.005 C 324.000 67.191,323.887 67.387,323.750 67.440 C 323.612 67.492,323.500 67.672,323.500 67.839 C 323.500 68.006,323.612 68.255,323.750 68.393 C 323.887 68.530,324.000 68.723,324.000 68.821 C 324.000 68.946,326.157 69.000,331.083 69.000 L 338.167 69.000 338.167 68.097 C 338.167 66.855,338.068 66.667,337.413 66.667 C 337.109 66.667,336.834 66.587,336.802 66.489 C 336.769 66.392,336.426 66.269,336.038 66.217 C 335.650 66.165,335.333 66.058,335.333 65.978 C 335.333 65.898,335.238 65.833,335.120 65.833 C 334.783 65.833,334.000 64.838,334.000 64.409 C 334.000 64.195,333.925 63.973,333.833 63.917 C 333.726 63.850,333.667 61.082,333.667 56.157 C 333.667 51.163,333.609 48.500,333.500 48.500 C 333.408 48.500,333.333 48.205,333.333 47.845 C 333.333 47.485,333.221 47.078,333.083 46.940 C 332.946 46.803,332.833 46.553,332.833 46.385 C 332.833 46.217,332.646 45.938,332.417 45.766 C 332.188 45.594,332.000 45.314,332.000 45.143 C 332.000 44.973,331.925 44.833,331.833 44.833 C 331.742 44.833,331.667 44.721,331.667 44.583 C 331.667 44.446,331.588 44.333,331.492 44.333 C 331.397 44.333,331.131 44.146,330.902 43.917 C 330.672 43.688,330.376 43.500,330.242 43.500 C 330.109 43.500,330.000 43.425,330.000 43.333 C 330.000 43.242,329.821 43.167,329.601 43.167 C 329.382 43.167,329.159 43.054,329.106 42.917 C 329.054 42.779,328.863 42.667,328.682 42.667 C 328.501 42.667,328.307 42.592,328.250 42.500 C 328.193 42.408,327.551 42.333,326.823 42.333 C 326.052 42.333,325.500 42.264,325.500 42.167 C 325.500 42.075,325.162 42.000,324.750 42.000 C 324.337 42.000,324.000 42.075,324.000 42.167 C 324.000 42.259,323.556 42.333,323.000 42.333 C 322.450 42.333,322.000 42.400,322.000 42.481 C 322.000 42.563,321.737 42.679,321.417 42.739 C 321.096 42.799,320.833 42.920,320.833 43.008 C 320.833 43.095,320.736 43.167,320.617 43.167 C 320.234 43.167,319.503 43.576,319.501 43.792 C 319.501 43.906,319.345 44.000,319.155 44.000 C 318.786 44.000,318.333 44.361,318.333 44.655 C 318.333 44.753,318.221 44.833,318.083 44.833 C 317.946 44.833,317.833 44.908,317.833 45.000 C 317.833 45.092,317.751 45.167,317.650 45.167 C 317.470 45.167,317.500 44.612,317.760 43.131 C 317.912 42.262,317.603 42.000,316.429 42.000 C 315.918 42.000,315.500 42.075,315.500 42.167 M351.583 42.167 C 351.527 42.258,350.889 42.333,350.167 42.333 C 349.444 42.333,348.812 42.400,348.762 42.481 C 348.711 42.562,348.407 42.678,348.085 42.739 C 347.763 42.799,347.500 42.920,347.500 43.008 C 347.500 43.095,347.313 43.167,347.083 43.167 C 346.854 43.167,346.667 43.242,346.667 43.333 C 346.667 43.425,346.514 43.500,346.328 43.500 C 346.142 43.500,345.946 43.612,345.894 43.750 C 345.841 43.887,345.656 44.000,345.482 44.000 C 345.309 44.000,345.167 44.075,345.167 44.167 C 345.167 44.258,345.054 44.333,344.917 44.333 C 344.779 44.333,344.667 44.446,344.667 44.583 C 344.667 44.721,344.593 44.833,344.502 44.833 C 344.285 44.833,342.667 46.448,342.667 46.664 C 342.667 46.757,342.554 46.833,342.417 46.833 C 342.275 46.833,342.167 46.983,342.167 47.179 C 342.167 47.548,341.806 48.000,341.512 48.000 C 341.414 48.000,341.333 48.188,341.333 48.417 C 341.333 48.646,341.258 48.833,341.167 48.833 C 341.075 48.833,341.000 49.013,341.000 49.232 C 341.000 49.452,340.887 49.674,340.750 49.727 C 340.612 49.780,340.500 49.975,340.500 50.161 C 340.500 50.348,340.425 50.500,340.333 50.500 C 340.242 50.500,340.167 50.837,340.167 51.250 C 340.167 51.663,340.092 52.000,340.000 52.000 C 339.905 52.000,339.833 52.504,339.833 53.179 C 339.833 54.004,339.758 54.432,339.583 54.607 C 339.401 54.789,339.333 55.233,339.333 56.241 C 339.333 57.269,339.398 57.679,339.583 57.833 C 339.764 57.983,339.833 58.381,339.833 59.270 C 339.833 59.979,339.904 60.500,340.000 60.500 C 340.092 60.500,340.167 60.800,340.167 61.167 C 340.167 61.533,340.242 61.833,340.333 61.833 C 340.425 61.833,340.500 61.986,340.500 62.172 C 340.500 62.358,340.612 62.554,340.750 62.606 C 340.887 62.659,341.000 62.844,341.000 63.018 C 341.000 63.191,341.075 63.333,341.167 63.333 C 341.258 63.333,341.333 63.521,341.333 63.750 C 341.333 63.979,341.428 64.167,341.543 64.167 C 341.658 64.167,341.855 64.399,341.981 64.684 C 342.251 65.294,344.703 67.832,345.027 67.836 C 345.150 67.838,345.427 68.025,345.642 68.253 C 345.858 68.480,346.177 68.667,346.351 68.667 C 346.525 68.667,346.667 68.742,346.667 68.833 C 346.667 68.925,346.846 69.000,347.066 69.000 C 347.285 69.000,347.508 69.112,347.560 69.250 C 347.623 69.414,347.884 69.500,348.318 69.500 C 348.682 69.500,349.027 69.575,349.083 69.667 C 349.140 69.758,349.819 69.833,350.593 69.833 C 351.420 69.833,352.000 69.902,352.000 70.000 C 352.000 70.092,352.150 70.167,352.333 70.167 C 352.517 70.167,352.667 70.092,352.667 70.000 C 352.667 69.902,353.250 69.833,354.083 69.833 C 354.917 69.833,355.500 69.765,355.500 69.667 C 355.500 69.575,355.800 69.500,356.167 69.500 C 356.648 69.500,356.833 69.431,356.833 69.250 C 356.833 69.083,357.000 69.000,357.333 69.000 C 357.608 69.000,357.833 68.943,357.833 68.873 C 357.833 68.803,358.133 68.615,358.500 68.456 C 358.867 68.298,359.167 68.092,359.167 68.000 C 359.167 67.909,359.261 67.833,359.377 67.833 C 359.493 67.833,359.728 67.646,359.900 67.417 C 360.073 67.188,360.318 67.000,360.447 67.000 C 360.788 67.000,362.833 64.836,362.833 64.474 C 362.833 64.305,362.946 64.167,363.083 64.167 C 363.282 64.167,363.333 63.926,363.333 63.000 C 363.333 62.074,363.282 61.833,363.083 61.833 C 362.946 61.833,362.833 61.721,362.833 61.583 C 362.833 61.129,361.761 61.263,361.500 61.750 C 361.377 61.979,361.177 62.167,361.055 62.167 C 360.933 62.167,360.833 62.247,360.833 62.345 C 360.833 62.576,360.409 63.000,360.179 63.000 C 360.080 63.000,360.000 63.075,360.000 63.167 C 360.000 63.258,359.899 63.333,359.776 63.333 C 359.653 63.333,359.334 63.521,359.068 63.750 C 358.801 63.979,358.452 64.166,358.292 64.166 C 358.131 64.167,358.000 64.279,358.000 64.417 C 358.000 64.591,357.824 64.667,357.417 64.667 C 357.096 64.667,356.833 64.742,356.833 64.833 C 356.833 64.925,356.571 65.000,356.250 65.000 C 355.843 65.000,355.667 65.075,355.667 65.250 C 355.667 65.454,355.389 65.500,354.167 65.500 C 352.944 65.500,352.667 65.454,352.667 65.250 C 352.667 65.076,352.492 65.000,352.093 65.000 C 351.778 65.000,351.473 64.925,351.417 64.833 C 351.360 64.742,351.168 64.667,350.990 64.667 C 350.812 64.667,350.667 64.597,350.667 64.511 C 350.667 64.426,350.498 64.303,350.292 64.237 C 350.085 64.172,349.795 63.980,349.647 63.809 C 349.499 63.639,349.293 63.500,349.189 63.500 C 349.085 63.500,349.000 63.435,349.000 63.357 C 349.000 63.278,348.756 62.950,348.458 62.628 C 347.770 61.884,347.500 61.426,347.500 61.002 C 347.500 60.815,347.389 60.667,347.250 60.667 C 347.076 60.667,347.000 60.492,347.000 60.093 C 347.000 59.778,346.925 59.473,346.833 59.417 C 346.742 59.360,346.667 58.765,346.667 58.094 C 346.667 57.213,346.597 56.817,346.417 56.667 C 346.279 56.553,346.167 56.289,346.167 56.081 C 346.167 55.873,346.279 55.659,346.417 55.606 C 346.604 55.535,346.667 55.236,346.667 54.422 L 346.667 53.333 355.000 53.333 C 362.296 53.333,363.333 53.302,363.333 53.083 C 363.333 52.946,363.408 52.833,363.500 52.833 C 363.595 52.833,363.667 52.333,363.667 51.667 C 363.667 51.000,363.595 50.500,363.500 50.500 C 363.408 50.500,363.333 50.160,363.333 49.745 C 363.333 49.227,363.255 48.959,363.083 48.894 C 362.946 48.841,362.833 48.618,362.833 48.399 C 362.833 48.179,362.758 48.000,362.667 48.000 C 362.575 48.000,362.500 47.848,362.500 47.661 C 362.500 47.475,362.387 47.280,362.250 47.227 C 362.113 47.174,362.000 47.033,362.000 46.913 C 362.000 46.793,361.738 46.425,361.417 46.095 C 361.096 45.764,360.833 45.452,360.833 45.402 C 360.833 45.248,360.368 44.833,360.196 44.833 C 360.108 44.833,359.992 44.721,359.940 44.583 C 359.887 44.446,359.709 44.333,359.545 44.333 C 359.380 44.333,359.105 44.146,358.933 43.917 C 358.761 43.688,358.480 43.500,358.310 43.500 C 358.139 43.500,358.000 43.425,358.000 43.333 C 358.000 43.242,357.845 43.167,357.655 43.167 C 357.465 43.167,357.197 43.054,357.060 42.917 C 356.922 42.779,356.627 42.667,356.405 42.667 C 356.182 42.667,356.000 42.592,356.000 42.500 C 356.000 42.402,355.417 42.333,354.583 42.333 C 353.750 42.333,353.167 42.265,353.167 42.167 C 353.167 42.075,352.834 42.000,352.427 42.000 C 352.019 42.000,351.640 42.075,351.583 42.167 M145.500 45.333 C 145.500 45.425,145.679 45.500,145.899 45.500 C 146.118 45.500,146.341 45.612,146.394 45.750 C 146.446 45.887,146.604 46.000,146.745 46.000 C 146.885 46.000,147.000 46.075,147.000 46.167 C 147.000 46.258,147.112 46.333,147.250 46.333 C 147.387 46.333,147.500 46.446,147.500 46.583 C 147.500 46.721,147.575 46.833,147.667 46.833 C 147.758 46.833,147.833 46.948,147.833 47.089 C 147.833 47.229,147.946 47.387,148.083 47.440 C 148.221 47.492,148.333 47.715,148.333 47.934 C 148.333 48.154,148.408 48.333,148.500 48.333 C 148.592 48.333,148.667 48.708,148.667 49.167 C 148.667 49.893,148.623 50.000,148.328 50.000 C 148.142 50.000,147.946 50.112,147.894 50.250 C 147.814 50.457,147.359 50.500,145.232 50.500 C 143.633 50.500,142.667 50.563,142.667 50.667 C 142.667 50.769,141.861 50.833,140.583 50.833 C 138.465 50.833,138.223 50.753,138.750 50.226 C 138.887 50.089,139.000 49.719,139.000 49.405 C 139.000 49.090,139.075 48.833,139.167 48.833 C 139.258 48.833,139.333 48.729,139.333 48.601 C 139.333 48.473,139.446 48.326,139.583 48.273 C 139.721 48.220,139.833 48.062,139.833 47.922 C 139.833 47.782,139.908 47.667,140.000 47.667 C 140.092 47.667,140.167 47.554,140.167 47.417 C 140.167 47.279,140.242 47.167,140.333 47.167 C 140.425 47.167,140.500 47.067,140.500 46.945 C 140.500 46.823,140.688 46.623,140.917 46.500 C 141.146 46.377,141.333 46.215,141.333 46.139 C 141.333 46.062,141.446 46.000,141.583 46.000 C 141.721 46.000,141.833 45.887,141.833 45.750 C 141.833 45.611,141.981 45.500,142.167 45.500 C 142.350 45.500,142.500 45.425,142.500 45.333 C 142.500 45.235,143.111 45.167,144.000 45.167 C 144.889 45.167,145.500 45.235,145.500 45.333 M171.833 45.333 C 171.833 45.425,172.021 45.500,172.250 45.500 C 172.479 45.500,172.667 45.580,172.667 45.679 C 172.667 45.909,173.091 46.333,173.321 46.333 C 173.420 46.333,173.500 46.446,173.500 46.583 C 173.500 46.721,173.575 46.833,173.667 46.833 C 173.758 46.833,173.833 46.947,173.833 47.086 C 173.833 47.224,173.904 47.468,173.991 47.627 C 174.078 47.786,174.193 48.198,174.248 48.542 C 174.303 48.885,174.420 49.167,174.508 49.167 C 174.741 49.167,174.718 54.455,174.484 54.533 C 174.383 54.567,174.261 54.948,174.212 55.380 C 174.163 55.813,174.058 56.167,173.978 56.167 C 173.899 56.167,173.833 56.354,173.833 56.583 C 173.833 56.813,173.758 57.000,173.667 57.000 C 173.575 57.000,173.500 57.150,173.500 57.333 C 173.500 57.519,173.389 57.667,173.250 57.667 C 173.112 57.667,173.000 57.747,173.000 57.845 C 173.000 58.113,172.560 58.500,172.257 58.500 C 172.110 58.500,171.946 58.612,171.894 58.750 C 171.828 58.920,171.563 59.000,171.066 59.000 C 170.598 59.000,170.329 59.075,170.320 59.208 C 170.310 59.375,170.290 59.375,170.223 59.208 C 170.172 59.081,169.819 59.000,169.319 59.000 C 168.702 59.000,168.500 58.938,168.500 58.750 C 168.500 58.608,168.351 58.500,168.155 58.500 C 167.793 58.500,167.333 58.141,167.333 57.859 C 167.333 57.615,166.770 56.669,166.625 56.668 C 166.556 56.667,166.500 56.367,166.500 56.000 C 166.500 55.633,166.425 55.333,166.333 55.333 C 166.229 55.333,166.167 54.278,166.167 52.500 C 166.167 50.722,166.229 49.667,166.333 49.667 C 166.425 49.667,166.500 49.292,166.500 48.833 C 166.500 48.204,166.561 48.000,166.750 48.000 C 166.891 48.000,167.000 47.851,167.000 47.660 C 167.000 47.473,167.150 47.158,167.333 46.962 C 167.517 46.765,167.667 46.468,167.667 46.302 C 167.667 46.110,167.790 46.000,168.005 46.000 C 168.191 46.000,168.387 45.887,168.440 45.750 C 168.492 45.612,168.640 45.500,168.768 45.500 C 168.896 45.500,169.000 45.425,169.000 45.333 C 169.000 45.235,169.583 45.167,170.417 45.167 C 171.250 45.167,171.833 45.235,171.833 45.333 M291.917 45.333 C 291.973 45.425,292.278 45.500,292.593 45.500 C 292.909 45.500,293.167 45.580,293.167 45.679 C 293.167 45.909,293.591 46.333,293.821 46.333 C 293.920 46.333,294.000 46.392,294.000 46.464 C 294.000 46.537,294.337 46.953,294.750 47.390 C 295.162 47.826,295.500 48.295,295.500 48.430 C 295.500 48.566,295.612 48.720,295.750 48.773 C 295.887 48.826,296.000 49.007,296.000 49.175 C 296.000 49.343,296.075 49.527,296.167 49.583 C 296.258 49.640,296.333 49.834,296.333 50.015 C 296.333 50.196,296.446 50.387,296.583 50.440 C 296.738 50.499,296.833 50.752,296.833 51.101 C 296.833 51.412,296.908 51.667,297.000 51.667 C 297.095 51.667,297.167 52.167,297.167 52.833 C 297.167 53.500,297.238 54.000,297.333 54.000 C 297.436 54.000,297.500 54.802,297.500 56.073 C 297.500 57.276,297.430 58.190,297.333 58.250 C 297.242 58.307,297.167 58.874,297.167 59.510 C 297.167 60.170,297.095 60.667,297.000 60.667 C 296.908 60.667,296.833 60.929,296.833 61.250 C 296.833 61.657,296.758 61.833,296.583 61.833 C 296.409 61.833,296.333 62.009,296.333 62.417 C 296.333 62.737,296.258 63.000,296.167 63.000 C 296.075 63.000,296.000 63.095,296.000 63.210 C 296.000 63.326,295.813 63.622,295.583 63.869 C 295.354 64.117,295.167 64.397,295.167 64.493 C 295.167 64.588,295.097 64.667,295.011 64.667 C 294.926 64.667,294.802 64.835,294.737 65.041 C 294.599 65.476,294.197 65.820,293.820 65.828 C 293.675 65.831,293.456 66.021,293.333 66.250 C 293.165 66.564,292.976 66.667,292.565 66.667 C 292.265 66.667,291.973 66.742,291.917 66.833 C 291.860 66.925,291.109 67.000,290.240 67.000 C 289.302 67.000,288.667 66.933,288.667 66.833 C 288.667 66.742,288.460 66.665,288.208 66.663 C 287.927 66.662,287.494 66.437,287.085 66.080 C 286.719 65.761,286.376 65.500,286.322 65.500 C 286.267 65.500,286.123 65.313,286.000 65.083 C 285.877 64.854,285.677 64.667,285.555 64.667 C 285.433 64.667,285.333 64.554,285.333 64.417 C 285.333 64.279,285.258 64.167,285.167 64.167 C 285.075 64.167,285.000 64.017,285.000 63.833 C 285.000 63.650,284.925 63.500,284.833 63.500 C 284.742 63.500,284.667 63.393,284.667 63.262 C 284.667 63.131,284.566 62.923,284.444 62.801 C 284.228 62.585,284.149 62.339,283.842 60.922 C 283.763 60.558,283.616 60.233,283.516 60.200 C 283.401 60.161,283.333 59.558,283.333 58.569 C 283.333 57.634,283.266 57.000,283.167 57.000 C 283.075 57.000,283.000 56.704,283.000 56.343 C 283.000 55.982,283.075 55.640,283.167 55.583 C 283.261 55.525,283.333 54.720,283.333 53.740 C 283.333 52.304,283.377 52.000,283.583 52.000 C 283.758 52.000,283.833 51.824,283.833 51.417 C 283.833 51.096,283.908 50.833,284.000 50.833 C 284.092 50.833,284.167 50.579,284.167 50.268 C 284.167 49.919,284.262 49.666,284.417 49.606 C 284.554 49.554,284.667 49.358,284.667 49.172 C 284.667 48.986,284.742 48.833,284.833 48.833 C 284.925 48.833,285.000 48.685,285.000 48.503 C 285.000 48.165,286.898 46.139,287.393 45.949 C 287.543 45.891,287.667 45.766,287.667 45.672 C 287.667 45.577,287.892 45.500,288.167 45.500 C 288.442 45.500,288.667 45.425,288.667 45.333 C 288.667 45.234,289.302 45.167,290.240 45.167 C 291.109 45.167,291.860 45.241,291.917 45.333 M354.000 45.333 C 354.000 45.425,354.188 45.500,354.417 45.500 C 354.646 45.500,354.833 45.571,354.833 45.659 C 354.833 45.746,355.096 45.942,355.417 46.095 C 355.738 46.247,356.000 46.443,356.000 46.531 C 356.000 46.619,356.094 46.795,356.208 46.923 C 356.740 47.516,356.833 47.675,356.833 47.993 C 356.833 48.180,356.908 48.333,357.000 48.333 C 357.092 48.333,357.167 48.708,357.167 49.167 C 357.167 49.893,357.123 50.000,356.828 50.000 C 356.642 50.000,356.446 50.112,356.394 50.250 C 356.314 50.457,355.859 50.500,353.732 50.500 C 352.133 50.500,351.167 50.563,351.167 50.667 C 351.167 50.769,350.361 50.833,349.083 50.833 C 346.965 50.833,346.723 50.753,347.250 50.226 C 347.387 50.089,347.500 49.719,347.500 49.405 C 347.500 49.090,347.575 48.833,347.667 48.833 C 347.758 48.833,347.833 48.721,347.833 48.583 C 347.833 48.446,347.946 48.333,348.083 48.333 C 348.222 48.333,348.333 48.185,348.333 48.000 C 348.333 47.817,348.408 47.667,348.500 47.667 C 348.592 47.667,348.667 47.583,348.667 47.480 C 348.667 47.238,349.905 46.000,350.147 46.000 C 350.250 46.000,350.333 45.887,350.333 45.750 C 350.333 45.612,350.479 45.500,350.657 45.500 C 350.835 45.500,351.027 45.425,351.083 45.333 C 351.140 45.242,351.819 45.167,352.593 45.167 C 353.420 45.167,354.000 45.235,354.000 45.333 M227.394 46.583 C 227.454 46.740,227.709 46.833,228.078 46.833 C 228.402 46.833,228.667 46.908,228.667 47.000 C 228.667 47.092,228.806 47.167,228.977 47.167 C 229.147 47.167,229.427 47.354,229.600 47.583 C 229.772 47.813,229.988 48.000,230.081 48.000 C 230.295 48.001,231.500 49.272,231.500 49.498 C 231.500 49.591,231.575 49.667,231.667 49.667 C 231.758 49.667,231.833 49.809,231.833 49.982 C 231.833 50.156,231.946 50.341,232.083 50.394 C 232.221 50.446,232.333 50.637,232.333 50.818 C 232.333 50.999,232.408 51.193,232.500 51.250 C 232.592 51.307,232.667 51.574,232.667 51.843 C 232.667 52.113,232.742 52.333,232.833 52.333 C 232.925 52.333,233.000 52.694,233.000 53.135 C 233.000 53.582,233.108 54.080,233.245 54.260 C 233.600 54.730,233.605 58.206,233.250 58.500 C 233.080 58.641,233.000 59.020,233.000 59.687 C 233.000 60.229,232.926 60.667,232.833 60.667 C 232.742 60.667,232.667 60.929,232.667 61.250 C 232.667 61.571,232.592 61.833,232.500 61.833 C 232.408 61.833,232.333 62.096,232.333 62.417 C 232.333 62.824,232.258 63.000,232.083 63.000 C 231.946 63.000,231.833 63.138,231.833 63.308 C 231.833 63.477,231.571 63.886,231.250 64.216 C 230.929 64.547,230.667 64.878,230.667 64.952 C 230.667 65.027,230.467 65.237,230.222 65.419 C 229.978 65.601,229.693 65.834,229.590 65.936 C 229.486 66.039,229.236 66.175,229.034 66.239 C 228.832 66.303,228.667 66.426,228.667 66.511 C 228.667 66.597,228.484 66.667,228.260 66.667 C 228.036 66.667,227.807 66.742,227.750 66.833 C 227.450 67.319,224.116 67.019,223.117 66.416 C 222.585 66.096,222.073 65.833,221.980 65.833 C 221.719 65.833,221.333 65.389,221.333 65.090 C 221.333 64.943,221.221 64.780,221.083 64.727 C 220.946 64.674,220.833 64.452,220.833 64.232 C 220.833 64.013,220.758 63.833,220.667 63.833 C 220.558 63.833,220.500 61.302,220.500 56.571 C 220.500 49.072,220.520 48.833,221.155 48.833 C 221.253 48.833,221.333 48.753,221.333 48.655 C 221.333 48.399,221.768 48.000,222.047 48.000 C 222.178 48.000,222.487 47.813,222.734 47.583 C 222.982 47.354,223.292 47.167,223.425 47.167 C 223.558 47.167,223.667 47.092,223.667 47.000 C 223.667 46.908,223.846 46.833,224.066 46.833 C 224.285 46.833,224.508 46.721,224.560 46.583 C 224.634 46.390,224.957 46.333,225.977 46.333 C 226.997 46.333,227.319 46.390,227.394 46.583 M199.833 60.417 C 199.833 63.343,199.797 63.833,199.583 63.833 C 199.446 63.833,199.333 63.912,199.333 64.008 C 199.333 64.234,198.567 65.000,198.341 65.000 C 198.245 65.000,198.167 65.112,198.167 65.250 C 198.167 65.406,198.009 65.500,197.750 65.500 C 197.521 65.500,197.333 65.575,197.333 65.667 C 197.333 65.758,197.071 65.833,196.750 65.833 C 196.429 65.833,196.167 65.908,196.167 66.000 C 196.167 66.092,195.867 66.167,195.500 66.167 C 195.133 66.167,194.833 66.092,194.833 66.000 C 194.833 65.908,194.627 65.831,194.375 65.828 C 193.821 65.822,193.333 65.482,193.333 65.101 C 193.333 64.948,193.221 64.780,193.083 64.727 C 192.946 64.674,192.833 64.452,192.833 64.232 C 192.833 64.013,192.758 63.833,192.667 63.833 C 192.574 63.833,192.500 63.389,192.500 62.833 C 192.500 62.278,192.574 61.833,192.667 61.833 C 192.758 61.833,192.833 61.646,192.833 61.417 C 192.833 61.186,192.930 61.000,193.050 61.000 C 193.169 61.000,193.361 60.737,193.477 60.417 C 193.593 60.096,193.788 59.833,193.910 59.833 C 194.031 59.833,194.174 59.721,194.227 59.583 C 194.280 59.446,194.438 59.333,194.578 59.333 C 194.718 59.333,194.833 59.258,194.833 59.167 C 194.833 59.075,194.946 59.000,195.083 59.000 C 195.221 59.000,195.333 58.887,195.333 58.750 C 195.333 58.594,195.491 58.500,195.750 58.500 C 195.979 58.500,196.167 58.425,196.167 58.333 C 196.167 58.242,196.354 58.167,196.583 58.167 C 196.843 58.167,197.000 58.072,197.000 57.917 C 197.000 57.742,197.176 57.667,197.583 57.667 C 197.904 57.667,198.167 57.592,198.167 57.500 C 198.167 57.408,198.429 57.333,198.750 57.333 C 199.071 57.333,199.333 57.258,199.333 57.167 C 199.333 57.075,199.446 57.000,199.583 57.000 C 199.797 57.000,199.833 57.491,199.833 60.417 M165.417 71.333 C 165.482 71.438,167.360 71.500,170.500 71.500 C 173.640 71.500,175.518 71.562,175.583 71.667 C 175.640 71.758,176.169 71.833,176.760 71.833 C 177.603 71.833,177.833 71.887,177.833 72.083 C 177.833 72.239,177.991 72.333,178.250 72.333 C 178.479 72.333,178.667 72.408,178.667 72.500 C 178.667 72.592,178.779 72.667,178.917 72.667 C 179.054 72.667,179.167 72.745,179.167 72.840 C 179.167 73.004,179.297 73.192,179.792 73.744 C 180.101 74.089,180.068 75.938,179.750 76.060 C 179.612 76.113,179.500 76.304,179.500 76.485 C 179.500 76.666,179.425 76.860,179.333 76.917 C 179.242 76.973,179.167 77.165,179.167 77.343 C 179.167 77.521,179.085 77.667,178.985 77.667 C 178.885 77.667,178.476 78.004,178.075 78.417 C 177.674 78.829,177.228 79.167,177.084 79.167 C 176.941 79.167,176.780 79.279,176.727 79.417 C 176.674 79.554,176.489 79.667,176.316 79.667 C 176.142 79.667,176.000 79.742,176.000 79.833 C 176.000 79.925,175.885 80.000,175.745 80.000 C 175.604 80.000,175.446 80.112,175.394 80.250 C 175.340 80.391,175.091 80.500,174.825 80.500 C 174.566 80.500,174.307 80.575,174.250 80.667 C 174.193 80.758,173.889 80.833,173.573 80.833 C 173.258 80.833,173.000 80.901,173.000 80.983 C 173.000 81.066,172.312 81.160,171.472 81.192 C 170.442 81.231,169.922 81.318,169.875 81.458 C 169.782 81.736,169.326 81.714,168.926 81.411 C 168.721 81.256,168.218 81.167,167.551 81.167 C 166.962 81.167,166.500 81.093,166.500 81.000 C 166.500 80.908,166.237 80.833,165.917 80.833 C 165.596 80.833,165.333 80.758,165.333 80.667 C 165.333 80.575,165.146 80.500,164.917 80.500 C 164.657 80.500,164.500 80.406,164.500 80.250 C 164.500 80.112,164.387 80.000,164.250 80.000 C 164.112 80.000,164.000 79.925,164.000 79.833 C 164.000 79.742,163.850 79.667,163.667 79.667 C 163.481 79.667,163.333 79.556,163.333 79.417 C 163.333 79.279,163.253 79.167,163.155 79.167 C 162.887 79.167,162.500 78.727,162.500 78.423 C 162.500 78.276,162.387 78.113,162.250 78.060 C 162.112 78.008,162.000 77.822,162.000 77.649 C 162.000 77.475,161.925 77.333,161.833 77.333 C 161.742 77.333,161.667 77.040,161.667 76.681 C 161.667 76.310,161.578 75.998,161.460 75.959 C 161.296 75.904,161.296 75.797,161.460 75.437 C 161.574 75.188,161.667 74.763,161.667 74.492 C 161.667 74.221,161.742 74.000,161.833 74.000 C 161.925 74.000,162.000 73.813,162.000 73.583 C 162.000 73.324,162.094 73.167,162.250 73.167 C 162.387 73.167,162.500 73.092,162.500 73.000 C 162.500 72.812,163.612 71.687,164.098 71.385 C 164.492 71.139,165.278 71.109,165.417 71.333 " stroke="none" fill="#040404" fill-rule="evenodd"></path><path id="path4" d="M19.198 59.417 C 18.999 59.646,18.901 59.833,18.982 59.833 C 19.062 59.833,19.251 59.646,19.401 59.417 C 19.551 59.188,19.649 59.000,19.617 59.000 C 19.586 59.000,19.397 59.188,19.198 59.417 " stroke="none" fill="#344034" fill-rule="evenodd"></path></g></svg>